<svg width="84" height="84" viewBox="0 0 84 84" fill="none" xmlns="http://www.w3.org/2000/svg">
<g id="avalanche-avax-logo 1" clip-path="url(#clip0_6854_3497)">
<path id="Vector" d="M67.8591 14.4097H16.0293V61.548H67.8591V14.4097Z" fill="white"/>
<path id="Vector_2" fill-rule="evenodd" clip-rule="evenodd" d="M83.9166 41.9998C83.9166 65.1652 65.1378 83.944 41.9725 83.944C18.8073 83.944 0.0283203 65.1652 0.0283203 41.9998C0.0283203 18.8347 18.8073 0.0556641 41.9725 0.0556641C65.1378 0.0556641 83.9166 18.8347 83.9166 41.9998ZM30.0867 58.6915H21.9465C20.236 58.6915 19.3911 58.6915 18.8759 58.3619C18.3195 58.0011 17.9795 57.4035 17.9382 56.7439C17.9073 56.1363 18.3298 55.3941 19.1747 53.9103L39.2739 18.4829C40.1291 16.9785 40.5618 16.2263 41.108 15.9481C41.6953 15.6493 42.396 15.6493 42.9833 15.9481C43.5294 16.2263 43.9622 16.9785 44.8174 18.4829L48.9494 25.6957L48.9704 25.7325C49.8942 27.3464 50.3626 28.1649 50.5671 29.0239C50.7938 29.9616 50.7938 30.9507 50.5671 31.8884C50.361 32.7539 49.8973 33.5783 48.9597 35.2166L38.4021 53.8794L38.3748 53.9272C37.445 55.5545 36.9737 56.3792 36.3207 57.0014C35.6097 57.6817 34.7544 58.1759 33.8168 58.4546C32.9615 58.6915 32.0033 58.6915 30.0867 58.6915ZM50.6433 58.6915H62.3073C64.0281 58.6915 64.8937 58.6915 65.4093 58.3519C65.9655 57.9911 66.3157 57.3829 66.347 56.7238C66.3766 56.1357 65.9633 55.4225 65.1535 54.0249C65.1255 53.9773 65.0976 53.9289 65.0691 53.8797L59.2265 43.8848L59.1601 43.7722C58.3391 42.3839 57.9246 41.6828 57.3924 41.4118C56.8054 41.1129 56.1145 41.1129 55.5275 41.4118C54.9916 41.69 54.5589 42.4216 53.7037 43.8951L47.8818 53.89L47.8619 53.9244C47.0097 55.3955 46.5838 56.1307 46.6145 56.7339C46.6557 57.3935 46.9957 58.0011 47.5521 58.3619C48.0571 58.6915 48.9226 58.6915 50.6433 58.6915Z" fill="#E84142"/>
</g>
<defs>
<clipPath id="clip0_6854_3497">
<rect width="83.9441" height="84" fill="white"/>
</clipPath>
</defs>
</svg>
