<svg width="24" height="25" viewBox="0 0 24 25" fill="none" xmlns="http://www.w3.org/2000/svg">
<g id="bell">
<path id="Vector" d="M6 8.5C6 6.9087 6.63214 5.38258 7.75736 4.25736C8.88258 3.13214 10.4087 2.5 12 2.5C13.5913 2.5 15.1174 3.13214 16.2426 4.25736C17.3679 5.38258 18 6.9087 18 8.5C18 15.5 21 17.5 21 17.5H3C3 17.5 6 15.5 6 8.5Z" stroke="white" stroke-width="2" stroke-linecap="round" stroke-linejoin="round"/>
<path id="Vector_2" d="M10.2998 21.5C10.4672 21.8044 10.7133 22.0583 11.0123 22.2352C11.3113 22.412 11.6524 22.5053 11.9998 22.5053C12.3472 22.5053 12.6883 22.412 12.9873 22.2352C13.2864 22.0583 13.5324 21.8044 13.6998 21.5" stroke="white" stroke-width="2" stroke-linecap="round" stroke-linejoin="round"/>
</g>
</svg>
