<svg width="72" height="35" viewBox="0 0 72 35" fill="none" xmlns="http://www.w3.org/2000/svg">
<g id="Group 6.1">
<path id="Vector 2.3" d="M2.76135 31.413H1V34C1 34.5523 1.44771 35 2 35H70C70.5523 35 71 34.5523 71 34V8.5L68.9089 17.3532C68.6514 18.4435 67.0704 18.3506 66.9423 17.2378L66.5461 13.7968C66.4577 13.0296 65.5064 12.7245 64.9883 13.2971C64.5323 13.8012 63.7032 13.6353 63.4762 12.9946L62.983 11.6026C62.701 10.8066 61.6203 10.6969 61.1841 11.42L58.006 16.6894C57.7862 17.0539 57.3 17.1494 56.9586 16.8952C56.55 16.5911 55.9636 16.7952 55.832 17.2872L54.3787 22.7244C54.1095 23.7314 52.672 23.7063 52.4381 22.6906L51.2128 17.3696L49.4905 12.633C49.1852 11.7934 48.0161 11.7449 47.6424 12.5563L47.5968 12.6552C47.2952 13.3101 46.4207 13.4403 45.9415 12.9016L44.7708 11.5858C44.2053 10.9503 43.1551 11.2661 43.0339 12.1081L42.2938 17.2501C42.2824 17.3295 42.2615 17.4071 42.2315 17.4815L41.601 19.0459C41.2815 19.8388 40.1789 19.8912 39.7856 19.1322L39.0886 17.787C38.9516 17.5226 38.7039 17.333 38.4129 17.2698L37.8119 17.1393C37.4224 17.0547 37.1202 16.7469 37.043 16.3558L35.1234 6.63078C34.9672 5.83906 33.8849 5.71843 33.5581 6.4563C33.2304 7.19622 32.1444 7.07227 31.9919 6.27754L31.5746 4.1029C31.3764 3.0699 29.9225 3.00394 29.6316 4.01474L28.4423 8.14619C28.319 8.57454 27.927 8.86957 27.4813 8.86957H25.5284C25.1088 8.86957 24.7338 9.13155 24.5895 9.52556L23.9561 11.2543C23.746 11.8278 22.9349 11.8278 22.7248 11.2543C22.4918 10.6184 21.5651 10.71 21.4612 11.3792L18.2981 31.7401C18.2571 32.0038 18.1124 32.2402 17.8962 32.3967L16.8343 33.1652C16.273 33.5715 15.4787 33.2976 15.287 32.6318L14.3599 29.4111C14.1248 28.5944 13.0427 28.4247 12.5688 29.1302L10.5687 32.1079C10.0831 32.831 8.96938 32.6306 8.7662 31.7836L8.25501 29.6526C8.24106 29.5945 8.22192 29.5377 8.19782 29.483L6.67182 26.0168C6.28511 25.1384 5.00324 25.2563 4.78322 26.1905L3.73472 30.6423C3.62836 31.0939 3.22532 31.413 2.76135 31.413Z" fill="url(#paint0_linear_6345_3917)"/>
<path id="Vector 2.2" d="M1 31.413H2.76135C3.22532 31.413 3.62836 31.0939 3.73472 30.6423L4.78322 26.1905C5.00324 25.2563 6.28511 25.1384 6.67182 26.0168L8.19783 29.483C8.22192 29.5377 8.24106 29.5945 8.25501 29.6526L8.7662 31.7836C8.96938 32.6306 10.0831 32.831 10.5687 32.1079L12.5688 29.1302C13.0427 28.4247 14.1248 28.5944 14.3599 29.4111L15.287 32.6318C15.4787 33.2976 16.273 33.5715 16.8343 33.1652L17.8962 32.3967C18.1124 32.2402 18.2571 32.0038 18.2981 31.7401L21.4612 11.3792C21.5651 10.71 22.4918 10.6184 22.7248 11.2543V11.2543C22.9349 11.8278 23.746 11.8278 23.9561 11.2543L24.5895 9.52556C24.7338 9.13155 25.1088 8.86957 25.5284 8.86957H27.4813C27.927 8.86957 28.319 8.57454 28.4423 8.14619L29.6316 4.01474C29.9225 3.00394 31.3764 3.0699 31.5746 4.1029L31.9919 6.27754C32.1445 7.07227 33.2304 7.19622 33.5581 6.4563V6.4563C33.8849 5.71843 34.9672 5.83906 35.1234 6.63078L37.043 16.3558C37.1202 16.7469 37.4224 17.0547 37.8119 17.1393L38.4129 17.2698C38.7039 17.333 38.9516 17.5226 39.0886 17.787L39.7856 19.1322C40.1789 19.8912 41.2815 19.8388 41.601 19.0459L42.2315 17.4815C42.2615 17.4071 42.2824 17.3295 42.2938 17.2501L43.0339 12.1081C43.1551 11.2661 44.2053 10.9503 44.7708 11.5858L45.9415 12.9016C46.4207 13.4403 47.2952 13.3101 47.5968 12.6552L47.6424 12.5563C48.0161 11.7449 49.1852 11.7934 49.4905 12.633L51.2128 17.3696L52.4381 22.6906C52.672 23.7063 54.1095 23.7314 54.3787 22.7244L55.832 17.2872C55.9636 16.7952 56.5501 16.5911 56.9586 16.8952V16.8952C57.3 17.1494 57.7862 17.0539 58.006 16.6894L61.1841 11.42C61.6203 10.6969 62.701 10.8066 62.983 11.6026L63.4762 12.9946C63.7032 13.6353 64.5323 13.8012 64.9883 13.2971V13.2971C65.5064 12.7245 66.4577 13.0296 66.5461 13.7968L66.8847 16.7381C67.0147 17.8666 68.6268 17.939 68.8574 16.8266L70.5833 8.5" stroke="#54575B" stroke-linecap="round"/>
</g>
<defs>
<linearGradient id="paint0_linear_6345_3917" x1="36" y1="0" x2="36" y2="35" gradientUnits="userSpaceOnUse">
<stop stop-color="#F1F2F8"/>
<stop offset="1" stop-color="#F1F2F8" stop-opacity="0"/>
</linearGradient>
</defs>
</svg>
