<svg width="72" height="28" viewBox="0 0 72 28" fill="none" xmlns="http://www.w3.org/2000/svg">
<g id="Group 10">
<path id="Vector" d="M3.3336 23.5606H1V26.5716C1 27.1239 1.44771 27.5716 2 27.5716H70C70.5523 27.5716 71 27.1239 71 26.5716V2.21057L68.9518 4.43037C68.4346 4.99088 67.5055 4.78939 67.267 4.065L66.5312 1.83031C66.3961 1.42019 66.0131 1.14307 65.5813 1.14307H62.6227C62.3823 1.14307 62.15 1.22967 61.9682 1.38703L59.9319 3.14989C59.6513 3.39285 59.2592 3.46037 58.9134 3.32526L57.0218 2.58603C56.496 2.38058 55.9046 2.65069 55.7155 3.18255L54.051 7.86585C53.7999 8.57247 52.8892 8.76147 52.3776 8.21314L50.9927 6.72875C50.7521 6.4708 50.3314 6.51524 50.1499 6.81778C49.9972 7.07232 49.6654 7.15208 49.4137 6.99472L48.9883 6.72869C48.5296 6.44189 47.926 6.57187 47.626 7.02205L46.4052 8.85394C46.1788 9.19365 45.7687 9.36165 45.369 9.27836L44.3334 9.06252C43.8398 8.95965 43.3469 9.24032 43.1834 9.71728L41.0664 15.8944C40.9668 16.1851 40.7389 16.4139 40.4486 16.5148L37.807 17.4324C37.3724 17.5833 36.891 17.4183 36.6403 17.0326L35.1652 14.7622C34.7624 14.1422 33.8493 14.1586 33.469 14.7927L33.208 15.2279C33.0819 15.4382 32.8829 15.5948 32.6488 15.668L30.9049 16.2132C30.6178 16.3029 30.3864 16.5171 30.2748 16.7964L29.1506 19.6078C29.0295 19.9108 28.7681 20.1356 28.4504 20.2101L25.854 20.8189C25.6515 20.8664 25.4689 20.9758 25.3315 21.132L23.8895 22.7712C23.5118 23.2007 22.8514 23.2264 22.4415 22.8276L21.812 22.2154C21.4934 21.9055 21.0086 21.8431 20.6219 22.0621L16.4467 24.427C16.133 24.6046 15.7479 24.5997 15.4389 24.414L14.5437 23.8763C14.2213 23.6826 13.8175 23.6862 13.4986 23.8856L12.5542 24.4761C12.3953 24.5755 12.2116 24.6282 12.0241 24.6282H9.26711C9.02789 24.6282 8.79659 24.5424 8.61519 24.3864L6.21733 22.325C5.8075 21.9726 5.19186 22.0097 4.82725 22.4086L4.07176 23.2353C3.88231 23.4426 3.61442 23.5606 3.3336 23.5606Z" fill="url(#paint0_linear_6345_3882)"/>
<path id="Vector_2" d="M1.4165 23.5607H3.33345C3.61428 23.5607 3.88217 23.4426 4.07162 23.2353L4.82711 22.4086C5.19172 22.0097 5.80736 21.9726 6.21719 22.325L8.61505 24.3864C8.79645 24.5424 9.02774 24.6282 9.26697 24.6282H12.0239C12.2114 24.6282 12.3951 24.5755 12.5541 24.4761L13.3531 23.9765C13.7436 23.7323 14.2503 23.7864 14.5804 24.1075L15.3458 24.8519C15.6899 25.1866 16.2234 25.2296 16.6166 24.9542L20.5965 22.1671C20.9898 21.8917 21.5232 21.9347 21.8674 22.2694L22.4413 22.8276C22.8513 23.2264 23.5116 23.2007 23.8894 22.7712L25.3313 21.132C25.4687 20.9758 25.6514 20.8664 25.8539 20.8189L28.4502 20.2101C28.768 20.1356 29.0293 19.9108 29.1505 19.6078L30.2746 16.7964C30.3863 16.5171 30.6177 16.3029 30.9048 16.2132L32.6487 15.668C32.8827 15.5948 33.0817 15.4382 33.2079 15.2279L33.4689 14.7927C33.8492 14.1586 34.7622 14.1422 35.165 14.7622L36.6402 17.0326C36.8908 17.4183 37.3723 17.5833 37.8068 17.4324L40.4484 16.5148C40.7388 16.4139 40.9666 16.1851 41.0663 15.8944L43.1833 9.71728C43.3467 9.24032 43.8397 8.95965 44.3333 9.06252L45.3689 9.27836C45.7685 9.36165 46.1787 9.19365 46.4051 8.85394L47.6258 7.02205C47.9258 6.57187 48.5294 6.44189 48.9881 6.72869L49.4136 6.99472C49.6653 7.15208 49.9971 7.07232 50.1498 6.81778V6.81778C50.3312 6.51524 50.7519 6.4708 50.9926 6.72875L52.3774 8.21313C52.889 8.76147 53.7997 8.57247 54.0509 7.86585L55.7154 3.18255C55.9044 2.65069 56.4959 2.38058 57.0216 2.58603L58.9133 3.32526C59.259 3.46037 59.6512 3.39285 59.9318 3.14989L61.9681 1.38703C62.1498 1.22967 62.3822 1.14307 62.6226 1.14307H65.5812C66.013 1.14307 66.396 1.42019 66.531 1.83031L67.2223 3.92972C67.4705 4.68335 68.4554 4.86168 68.952 4.2429L70.5832 2.21057" stroke="#F7931A" stroke-linecap="round"/>
</g>
<defs>
<linearGradient id="paint0_linear_6345_3882" x1="36" y1="1.14307" x2="36" y2="27.5716" gradientUnits="userSpaceOnUse">
<stop stop-color="#FEF0EE"/>
<stop offset="1" stop-color="#FEF0EE" stop-opacity="0"/>
</linearGradient>
</defs>
</svg>
