<svg width="30" height="31" viewBox="0 0 30 31" fill="none" xmlns="http://www.w3.org/2000/svg">
<g id="circle-dashed">
<path id="Vector" d="M12.7803 3.3582C14.3143 3.05915 15.8917 3.05915 17.4257 3.3582" stroke="white" stroke-width="3.25994" stroke-linecap="round" stroke-linejoin="round"/>
<path id="Vector_2" d="M21.949 5.22852C23.2476 6.10657 24.3642 7.22736 25.2374 8.52921" stroke="white" stroke-width="3.25994" stroke-linecap="round" stroke-linejoin="round"/>
<path id="Vector_3" d="M27.1079 13.0403C27.407 14.5743 27.407 16.1517 27.1079 17.6857" stroke="white" stroke-width="3.25994" stroke-linecap="round" stroke-linejoin="round"/>
<path id="Vector_4" d="M25.2375 22.2089C24.3594 23.5075 23.2386 24.6241 21.9368 25.4973" stroke="white" stroke-width="3.25994" stroke-linecap="round" stroke-linejoin="round"/>
<path id="Vector_5" d="M17.4257 27.3677C15.8916 27.6664 14.3143 27.6664 12.7803 27.3677" stroke="white" stroke-width="3.25994" stroke-linecap="round" stroke-linejoin="round"/>
<path id="Vector_6" d="M8.25722 25.4975C6.95861 24.6194 5.84198 23.4986 4.96875 22.1968" stroke="white" stroke-width="3.25994" stroke-linecap="round" stroke-linejoin="round"/>
<path id="Vector_7" d="M3.09855 17.6857C2.79951 16.1517 2.79951 14.5743 3.09855 13.0403" stroke="white" stroke-width="3.25994" stroke-linecap="round" stroke-linejoin="round"/>
<path id="Vector_8" d="M4.96875 8.51698C5.8468 7.21838 6.96759 6.10174 8.26944 5.22852" stroke="white" stroke-width="3.25994" stroke-linecap="round" stroke-linejoin="round"/>
</g>
</svg>
