<svg width="47" height="43" viewBox="0 0 47 43" fill="none" xmlns="http://www.w3.org/2000/svg">
<path d="M37.8109 6.82409C39.3385 6.68075 40.601 7.99815 40.3929 9.51826L38.5139 23.2407C38.1744 26.0441 36.9217 28.7233 34.757 30.7979C29.6387 35.703 21.3603 35.3707 16.2666 30.0556C11.1728 24.7405 11.1927 16.4555 16.3109 11.5504C16.6699 11.2063 17.0444 10.8881 17.4323 10.5955L25.2182 3.09225C26.3636 1.98835 27.8102 1.80173 28.6546 3.04344C28.8229 3.29088 29.1188 3.87128 29.2041 4.17658L30.1456 7.54337L37.8109 6.82409Z" fill="#C8DEFF"/>
<path d="M27.0893 22.2429L12.6061 38.927C11.0376 40.7338 8.25569 40.8023 6.60019 39.0749C4.94469 37.3475 5.13138 34.571 7.00326 33.0807L24.2879 19.3198L27.0893 22.2429Z" fill="#C8DEFF"/>
<path d="M22.7073 27.2906C21.8594 27.0158 21.0652 26.5332 20.4053 25.8445C19.7453 25.1558 19.2969 24.3419 19.0584 23.4829L15.3293 26.4517C15.7827 27.3619 16.3794 28.22 17.12 28.9928C17.8607 29.7657 18.6927 30.3983 19.5828 30.8899L22.7073 27.2906Z" fill="#C8DEFF"/>
<path d="M10.8543 37.6546C10.0895 38.3876 8.87551 38.3617 8.1426 37.597C7.40969 36.8323 7.43552 35.6182 8.20027 34.8853C8.96498 34.1524 10.1791 34.1782 10.912 34.9429C11.6448 35.7077 11.6191 36.9217 10.8543 37.6546Z" fill="#C8DEFF"/>
<path d="M21.3645 24.9257C23.4957 27.1495 27.0261 27.2246 29.2499 25.0934C30.2699 24.1159 32.2866 21.4556 33.9656 18.6473C34.4 17.9208 35.4608 17.9872 35.6336 18.8156C36.3361 22.184 35.3392 25.828 32.6719 28.3843C28.5566 32.3283 22.0232 32.1894 18.0792 28.074C14.1352 23.9586 14.2741 17.4252 18.3895 13.4813C21.0569 10.9249 24.7402 10.0839 28.0758 10.9291C28.8962 11.137 28.9174 12.1997 28.1731 12.6027C25.2958 14.1609 22.5521 16.0628 21.5322 17.0402C19.3083 19.1714 19.2333 22.7019 21.3645 24.9257Z" fill="#C8DEFF"/>
<path fill-rule="evenodd" clip-rule="evenodd" d="M29.1992 15.1372C30.5364 14.9614 31.66 16.1338 31.4276 17.4624L30.7085 21.5717C30.6624 22.9135 30.1237 24.2368 29.0835 25.2337C26.9039 27.3225 23.4363 27.142 21.337 24.9515C19.2377 22.7609 19.2048 19.2888 21.3843 17.2C22.291 16.3311 23.4308 15.8525 24.5986 15.752C24.6557 15.7378 24.7137 15.7268 24.7726 15.7191L29.1992 15.1372Z" fill="#C8DEFF"/>
<path d="M37.8109 6.82408C39.3385 6.68075 40.601 7.99815 40.3929 9.51825L38.5139 23.2407C38.1744 26.0441 36.9217 28.7233 34.757 30.7979C29.6387 35.703 21.3603 35.3707 16.2666 30.0556C11.1728 24.7405 11.1927 16.4555 16.3109 11.5504C16.6699 11.2063 17.0444 10.888 17.4323 10.5955L25.2182 3.09225C26.3636 1.98836 27.8102 1.80173 28.6546 3.04343C28.8229 3.29088 29.1188 3.87128 29.2041 4.17658L30.1456 7.54337L37.8109 6.82408Z" fill="url(#paint0_linear_6775_15828)"/>
<path fill-rule="evenodd" clip-rule="evenodd" d="M17.63 24.6201L7.00326 33.0804C5.13138 34.5706 4.94469 37.3471 6.60019 39.0746C8.25569 40.802 11.0376 40.7335 12.6061 38.9267L21.5105 28.6692L17.63 24.6201Z" fill="#C8DEFF"/>
<path d="M10.854 37.6542C10.0893 38.387 8.87525 38.3612 8.14234 37.5965C7.40947 36.8317 7.43526 35.6177 8.20001 34.8848C8.96477 34.1519 10.1788 34.1777 10.9117 34.9424C11.6446 35.7072 11.6188 36.9212 10.854 37.6542Z" fill="#000437"/>
<path d="M21.3645 24.9257C23.4957 27.1495 27.0261 27.2246 29.2499 25.0934C30.2699 24.1159 32.2866 21.4556 33.9656 18.6473C34.3999 17.9208 35.4608 17.9872 35.6336 18.8157C36.3361 22.184 35.3392 25.828 32.6719 28.3843C28.5565 32.3283 22.0232 32.1894 18.0792 28.074C14.1352 23.9586 14.2741 17.4252 18.3895 13.4813C21.0569 10.9249 24.7402 10.0839 28.0758 10.9291C28.8962 11.137 28.9173 12.1997 28.1731 12.6027C25.2958 14.1609 22.5521 16.0628 21.5321 17.0402C19.3083 19.1714 19.2333 22.7019 21.3645 24.9257Z" fill="#C8DEFF"/>
<path opacity="0.4" fill-rule="evenodd" clip-rule="evenodd" d="M29.199 15.1372C30.5362 14.9614 31.6598 16.1338 31.4273 17.4624L30.7083 21.5717C30.6622 22.9135 30.1235 24.2368 29.0833 25.2337C26.9037 27.3225 23.4361 27.142 21.3368 24.9515C19.2375 22.7609 19.2045 19.2888 21.3841 17.2C22.2908 16.3311 23.4306 15.8525 24.5983 15.752C24.6554 15.7378 24.7135 15.7268 24.7723 15.7191L29.199 15.1372Z" fill="white"/>
<defs>
<linearGradient id="paint0_linear_6775_15828" x1="21.3271" y1="29.9329" x2="37.3826" y2="0.329844" gradientUnits="userSpaceOnUse">
<stop stop-color="#8712E3"/>
<stop offset="0.338542" stop-color="#268AFF"/>
<stop offset="1" stop-color="#F8F8F8"/>
</linearGradient>
</defs>
</svg>
