<svg width="43" height="43" viewBox="0 0 43 43" fill="none" xmlns="http://www.w3.org/2000/svg">
<path fill-rule="evenodd" clip-rule="evenodd" d="M8.20878 9.70178C8.20885 9.50152 8.25569 9.30406 8.34557 9.12511C8.43546 8.94616 8.5659 8.79068 8.7265 8.67107L15.1782 3.87012H27.5347L34.0402 8.54852C34.2475 8.6976 34.4163 8.89385 34.5328 9.12107C34.6493 9.34829 34.7101 9.59995 34.7101 9.85529V10.1124C34.7101 10.2973 34.7712 10.4706 34.8688 10.6276C35.1122 11.018 35.5624 11.2911 36.007 11.1719L36.1184 11.1418C39.3326 10.2818 42.512 12.7866 42.3426 16.166C42.0773 21.4472 38.3918 25.9704 33.2257 27.3533C33.1419 27.3756 33.0581 27.3971 32.9738 27.4178C31.8639 29.0928 30.406 30.509 28.6996 31.5699C28.8221 31.6989 28.9352 31.8356 29.0388 31.9801C29.9779 32.1512 30.8189 32.6676 31.3963 33.4277C31.9737 34.1877 32.2458 35.1363 32.1589 36.0869C32.072 37.0374 31.6325 37.9211 30.9269 38.5638C30.2213 39.2066 29.3006 39.562 28.3461 39.5601H14.3354C13.355 39.5611 12.4117 39.1852 11.7007 38.5101C10.9897 37.835 10.5654 36.9125 10.5156 35.9333C10.4657 34.9541 10.7942 33.9933 11.433 33.2495C12.0718 32.5058 12.9721 32.036 13.9476 31.9375C14.0177 31.842 14.0925 31.75 14.1712 31.6614C12.3962 30.5882 10.8822 29.1337 9.73872 27.4032L9.58736 27.3636C4.42607 25.9786 0.734091 21.4571 0.438251 16.1845C0.249051 12.809 3.41557 10.2677 6.6539 11.1363C7.15485 11.2708 7.6601 10.9647 7.94562 10.5317L7.97572 10.4874C8.11375 10.2857 8.20878 10.0531 8.20878 9.80885V9.70178ZM11.9334 9.50054L10.7888 10.3524V11.7821L10.772 11.7735C10.6967 11.7346 10.6128 11.715 10.528 11.7165C10.4432 11.718 10.36 11.7405 10.2861 11.7821C10.2057 11.8269 10.1386 11.8924 10.092 11.9717C10.0453 12.0511 10.0208 12.1415 10.0208 12.2336V14.7113L5.98525 13.629C4.43381 13.2127 2.92365 14.4296 3.01395 16.04C3.01997 16.1423 3.02685 16.2438 3.03631 16.3453C3.36612 20.0824 5.87044 23.3169 9.436 24.6129C10.0615 24.8404 10.7083 25.0043 11.3667 25.1022C12.6789 27.5416 14.8359 29.4184 17.4331 30.3809C17.443 30.3852 17.4534 30.3886 17.4641 30.3925C18.0828 30.619 18.7202 30.7907 19.369 30.9055L19.3982 30.9107C19.7388 31.102 19.9327 31.3127 20.0338 31.514C20.0862 31.6184 20.1133 31.7204 20.1232 31.8162V31.9715C20.1214 32.0107 20.1171 32.0498 20.1103 32.0884C20.0925 32.188 20.0606 32.2846 20.0157 32.3752C19.9074 32.5928 19.7078 32.813 19.369 32.9609H17.0255L16.9967 32.9613C16.811 32.9657 16.6287 33.0117 16.4631 33.0959C16.2975 33.1801 16.153 33.3003 16.0401 33.4478C15.9271 33.5953 15.8487 33.7662 15.8106 33.948C15.7725 34.1297 15.7756 34.3177 15.8198 34.4982H14.3354C14.1724 34.498 14.011 34.5301 13.8604 34.5924C13.7098 34.6547 13.5729 34.7461 13.4577 34.8614C13.3424 34.9766 13.251 35.1135 13.1887 35.2641C13.1264 35.4147 13.0943 35.5761 13.0944 35.7391C13.0944 36.0683 13.2252 36.3839 13.4579 36.6166C13.6906 36.8494 14.0063 36.9801 14.3354 36.9801H28.3461C28.6752 36.9801 28.9909 36.8494 29.2236 36.6166C29.4563 36.3839 29.5871 36.0683 29.5871 35.7391C29.5871 35.41 29.4563 35.0944 29.2236 34.8616C28.9909 34.6289 28.6752 34.4982 28.3461 34.4982H27.1352C27.1831 34.3038 27.1831 34.1008 27.1352 33.9065C27.069 33.6367 26.9142 33.397 26.6956 33.2256C26.477 33.0542 26.2073 32.961 25.9295 32.9609H23.466C23.0704 32.8203 22.8335 32.5898 22.7032 32.3598C22.6548 32.2748 22.6185 32.1835 22.5953 32.0884V31.8429C22.5993 31.8192 22.6045 31.7956 22.6108 31.7724L22.6116 31.7685C22.6288 31.704 22.6546 31.6374 22.6916 31.5699C22.812 31.3488 23.0464 31.1175 23.466 30.9145C23.5017 30.8973 23.5387 30.8801 23.577 30.8634C24.1597 30.7479 24.7324 30.5866 25.2897 30.3809C27.886 29.4188 30.0424 27.5429 31.3548 25.1048C31.9983 25.0158 32.6314 24.8637 33.2451 24.6507C36.8855 23.3878 39.4388 20.1177 39.7467 16.3307C39.7544 16.233 39.7609 16.135 39.7656 16.037C39.8465 14.427 38.3294 13.2218 36.7857 13.635L32.7485 14.7151V12.262C32.7487 12.191 32.7344 12.1208 32.7063 12.0556C32.6586 11.9475 32.5757 11.8588 32.471 11.8041C32.3662 11.7494 32.2461 11.732 32.1301 11.7546V10.3528L26.7031 6.45012H16.0322L11.933 9.50054H11.9334ZM32.7016 19.7388C32.7021 20.5896 32.6071 21.4377 32.4186 22.2672C33.4964 21.8946 34.4711 21.2731 35.2635 20.4531C35.6746 20.0274 36.0313 19.5526 36.3256 19.0392C36.8386 18.1465 37.1484 17.1517 37.2329 16.1255L32.7016 17.3381V19.7388ZM10.0208 17.3222L5.5488 16.1225L5.55439 16.184C5.65329 17.204 5.97407 18.1758 6.47459 19.0422C6.75005 19.5186 7.07883 19.962 7.45456 20.3641C8.24092 21.2056 9.21516 21.8492 10.2977 22.2423C10.1129 21.4206 10.0199 20.581 10.0204 19.7388V17.3222H10.0208Z" fill="white"/>
<path d="M16.0329 6.4502L10.7886 10.3524V15.9622H32.1295V10.3524L26.7033 6.4502H16.0329Z" fill="url(#paint0_linear_6775_15820)"/>
<path opacity="0.3" d="M16.0324 6.4502L10.7886 10.3524V15.9622H32.1295V10.3524L26.7029 6.4502H16.0324Z" fill="#1453A3"/>
<path fill-rule="evenodd" clip-rule="evenodd" d="M10.0205 12.2331V14.7112L5.98541 13.6284C4.43354 13.2122 2.92381 14.4291 3.01411 16.0394C3.24674 20.1877 6.15741 23.7717 10.2553 24.8712C10.6247 24.9701 10.9953 25.0467 11.366 25.1017C12.9832 28.1095 15.9184 30.303 19.3984 30.9101C19.9157 31.2012 20.0946 31.5362 20.123 31.8157V31.9705C20.1096 32.2698 19.9312 32.7148 19.3687 32.9608H17.0252C16.837 32.9607 16.6513 33.0034 16.4821 33.0857C16.3128 33.168 16.1645 33.2877 16.0484 33.4358C15.9322 33.5838 15.8512 33.7564 15.8116 33.9403C15.7719 34.1243 15.7747 34.3149 15.8195 34.4976H14.3352C14.006 34.4976 13.6903 34.6284 13.4575 34.8612C13.2247 35.0939 13.094 35.4096 13.094 35.7388C13.094 36.068 13.2247 36.3837 13.4575 36.6165C13.6903 36.8492 14.006 36.98 14.3352 36.98H28.3458C28.675 36.98 28.9907 36.8492 29.2235 36.6165C29.4563 36.3837 29.587 36.068 29.587 35.7388C29.587 35.4096 29.4563 35.0939 29.2235 34.8612C28.9907 34.6284 28.675 34.4976 28.3458 34.4976H27.135C27.1798 34.3149 27.1825 34.1243 27.1429 33.9403C27.1032 33.7564 27.0223 33.5838 26.9061 33.4358C26.79 33.2877 26.6416 33.168 26.4724 33.0857C26.3032 33.0034 26.1174 32.9607 25.9292 32.9608H23.4662C22.9115 32.763 22.6681 32.3902 22.595 32.0879V31.8424C22.6492 31.5311 22.896 31.1617 23.5759 30.8633C26.9445 30.1963 29.7765 28.0377 31.3546 25.1043C31.7566 25.0484 32.1587 24.968 32.5586 24.8609C36.6586 23.7635 39.5572 20.1825 39.7654 16.0364C39.8462 14.4265 38.3292 13.2212 36.7854 13.6345L32.7482 14.7146V12.2615C32.7483 12.1718 32.725 12.0836 32.6806 12.0056C32.6362 11.9276 32.5723 11.8626 32.4951 11.8169C32.4179 11.7712 32.3302 11.7464 32.2405 11.7449C32.1508 11.7435 32.0623 11.7655 31.9836 11.8087L27.159 14.4545L21.7238 12.4945C21.6098 12.4534 21.485 12.4537 21.3712 12.4954L16.0186 14.4545L10.7722 11.773C10.6934 11.7327 10.6056 11.7133 10.5172 11.7167C10.4288 11.7201 10.3428 11.7461 10.2673 11.7923C10.1919 11.8385 10.1296 11.9033 10.0864 11.9804C10.0431 12.0576 10.0205 12.1446 10.0205 12.2331ZM32.4184 22.2671C32.6033 21.4544 32.7013 20.6082 32.7013 19.7387V17.338L37.2322 16.1254C37.0065 18.9007 35.1295 21.3267 32.4184 22.2671ZM10.0205 17.3221V19.7387C10.0205 20.5987 10.116 21.4372 10.2975 22.2422C7.63962 21.2756 5.79105 18.871 5.5481 16.1224L10.0201 17.3221H10.0205Z" fill="url(#paint1_linear_6775_15820)"/>
<path d="M24.497 23.2202C26.1598 23.2202 27.4025 21.9801 27.4025 20.2188C27.4025 18.4042 26.125 17.2002 24.4798 17.2002C23.4121 17.2002 22.5375 17.7033 21.3649 18.9434C20.2099 17.7214 19.2996 17.2002 18.2848 17.2002C16.6048 17.2002 15.3625 18.4403 15.3625 20.2188C15.3625 21.9981 16.6052 23.2202 18.25 23.2202C19.2996 23.2202 20.2972 22.699 21.3825 21.5312C22.4498 22.6633 23.4121 23.2202 24.497 23.2202ZM24.4097 21.5488C23.8499 21.5488 23.3777 21.1897 22.5023 20.2192C23.4121 19.1769 23.9023 18.8716 24.4097 18.8716C25.2323 18.8716 25.6873 19.4822 25.6873 20.1831C25.6873 20.9201 25.2323 21.5488 24.4102 21.5488H24.4097ZM18.3549 21.5488C17.55 21.5488 17.095 20.9382 17.095 20.1831C17.095 19.4646 17.5323 18.8716 18.3549 18.8716C18.8971 18.8716 19.3873 19.2307 20.2448 20.2192C19.3697 21.2074 18.8799 21.5488 18.3549 21.5488Z" fill="white"/>
<path opacity="0.3" d="M12.0634 10.438L15.7322 7.71264C15.7905 7.66908 15.86 7.64286 15.9325 7.637C16.0051 7.63114 16.0779 7.64587 16.1425 7.67951C16.207 7.71315 16.2608 7.76432 16.2976 7.82715C16.3344 7.88999 16.3528 7.96193 16.3505 8.03471L16.243 11.8114C16.2414 11.8707 16.2261 11.9289 16.1984 11.9814C16.1707 12.0339 16.1313 12.0793 16.0833 12.1141C16.0352 12.1489 15.9798 12.1722 15.9213 12.1822C15.8628 12.1922 15.8028 12.1886 15.7459 12.1717L12.1847 11.1208C12.1156 11.1005 12.0535 11.0612 12.0055 11.0075C11.9574 10.9539 11.9253 10.8879 11.9127 10.8169C11.9001 10.746 11.9075 10.673 11.9342 10.606C11.9608 10.5391 12.0055 10.4809 12.0634 10.438Z" fill="white"/>
<path opacity="0.3" fill-rule="evenodd" clip-rule="evenodd" d="M32.6257 19.7391V16.481C31.6938 24.9077 17.3529 31.0992 10.4045 22.946C11.618 27.071 15.1139 30.2186 19.4307 30.929C19.9226 31.2153 20.0946 31.5421 20.123 31.8156V31.8939L20.1225 31.9704C20.1092 32.2697 19.9308 32.7143 19.3683 32.9603H17.0248C16.8319 32.9603 16.6417 33.0052 16.4692 33.0916C16.2967 33.1779 16.1467 33.3033 16.0311 33.4577C15.9155 33.6121 15.8375 33.7913 15.8032 33.9812C15.769 34.171 15.7794 34.3662 15.8337 34.5513H27.1199C27.1742 34.3662 27.1845 34.171 27.1502 33.9811C27.1159 33.7913 27.0378 33.6121 26.9222 33.4577C26.8065 33.3033 26.6565 33.178 26.484 33.0916C26.3115 33.0053 26.1213 32.9603 25.9284 32.9603H23.4654C22.9107 32.7629 22.6673 32.3901 22.5942 32.0874V31.8423C22.6501 31.5206 22.9111 31.1371 23.6434 30.8344C28.7746 29.749 32.6257 25.1936 32.6257 19.7391Z" fill="#1453A3"/>
<defs>
<linearGradient id="paint0_linear_6775_15820" x1="33.0355" y1="16.0616" x2="21.6525" y2="-3.97429" gradientUnits="userSpaceOnUse">
<stop offset="0.052" stop-color="#FC55FF"/>
<stop offset="0.443" stop-color="#268AFF"/>
<stop offset="0.891" stop-color="#26F663"/>
</linearGradient>
<linearGradient id="paint1_linear_6775_15820" x1="24.2858" y1="37.4423" x2="11.6171" y2="9.1302" gradientUnits="userSpaceOnUse">
<stop offset="0.052" stop-color="#A45CF6"/>
<stop offset="0.443" stop-color="#A45CF6"/>
<stop offset="0.891" stop-color="#A45CF6"/>
</linearGradient>
</defs>
</svg>
