<svg width="30" height="30" viewBox="0 0 30 30" fill="none" xmlns="http://www.w3.org/2000/svg">
<g id="Group 1000001751">
<circle id="Ellipse 797" cx="15" cy="15" r="15" fill="#F5F5F5"/>
<path id="Vector" d="M20.545 10.0784C19.5075 9.57087 18.4128 9.20864 17.2881 9.00074C17.2779 8.99891 17.2674 9.00049 17.2581 9.00526C17.2488 9.01003 17.2411 9.01776 17.2361 9.02739C17.0951 9.29387 16.9391 9.64243 16.8301 9.9153C15.6177 9.71918 14.3845 9.71918 13.1721 9.9153C13.0505 9.61132 12.913 9.31488 12.7601 9.02739C12.755 9.01787 12.7473 9.01023 12.738 9.00547C12.7287 9.00072 12.7183 8.99907 12.7081 9.00074C11.5831 9.20753 10.4881 9.56994 9.45114 10.0784C9.44227 10.082 9.43485 10.0888 9.43014 10.0976C7.35617 13.4009 6.78717 16.6232 7.06617 19.8049C7.06717 19.8199 7.07617 19.8348 7.08717 19.8444C8.29488 20.798 9.64573 21.526 11.0821 21.9975C11.0923 22.0009 11.1032 22.0008 11.1132 21.9972C11.1233 21.9935 11.132 21.9866 11.1381 21.9773C11.4461 21.5296 11.7201 21.0574 11.9561 20.5607C11.961 20.5504 11.9627 20.5388 11.9609 20.5275C11.9591 20.5161 11.9539 20.5057 11.9461 20.4978C11.9409 20.4926 11.9348 20.4886 11.9281 20.4861C11.4973 20.3096 11.08 20.0975 10.6801 19.8518C10.669 19.8451 10.6607 19.834 10.6569 19.8209C10.6532 19.8078 10.6544 19.7937 10.6601 19.7815C10.6635 19.7735 10.6687 19.7666 10.6751 19.7612C10.7591 19.6941 10.8431 19.6237 10.9231 19.5534C10.9302 19.5473 10.9387 19.5434 10.9477 19.5421C10.9566 19.5408 10.9658 19.5421 10.9741 19.5459C13.5931 20.8208 16.4281 20.8208 19.015 19.5459C19.0237 19.5419 19.0332 19.5405 19.0425 19.5418C19.0518 19.5431 19.0607 19.5471 19.068 19.5534C19.148 19.6237 19.232 19.6941 19.316 19.7612C19.3228 19.7665 19.3283 19.7735 19.332 19.7817C19.3356 19.7898 19.3373 19.7987 19.3369 19.8077C19.3365 19.8166 19.334 19.8254 19.3297 19.8331C19.3253 19.8408 19.3193 19.8472 19.312 19.8518C18.9131 20.0998 18.4953 20.3116 18.0631 20.485C18.0562 20.4876 18.0499 20.4919 18.0447 20.4974C18.0395 20.5029 18.0355 20.5096 18.0331 20.517C18.0307 20.5241 18.0298 20.5316 18.0303 20.5391C18.0308 20.5467 18.0328 20.554 18.0361 20.5607C18.2761 21.0563 18.551 21.5296 18.853 21.9773C18.8591 21.9866 18.8679 21.9935 18.8779 21.9972C18.888 22.0008 18.8989 22.0009 18.909 21.9975C20.3478 21.5275 21.7009 20.7993 22.91 19.8444C22.9161 19.8399 22.9211 19.834 22.9247 19.8272C22.9284 19.8204 22.9305 19.8128 22.931 19.8049C23.265 16.1264 22.372 12.9308 20.565 10.0986C20.5632 10.094 20.5605 10.0897 20.557 10.0863C20.5536 10.0828 20.5495 10.0801 20.545 10.0784ZM12.3471 17.8671C11.5581 17.8671 10.9091 17.0954 10.9091 16.1488C10.9091 15.2012 11.5461 14.4295 12.3471 14.4295C13.1541 14.4295 13.7971 15.2076 13.7851 16.1488C13.7851 17.0954 13.1481 17.8671 12.3471 17.8671ZM17.6631 17.8671C16.8751 17.8671 16.2251 17.0954 16.2251 16.1488C16.2251 15.2012 16.8621 14.4295 17.6631 14.4295C18.47 14.4295 19.114 15.2076 19.101 16.1488C19.101 17.0954 18.47 17.8671 17.6631 17.8671Z" fill="#060606" fill-opacity="0.49"/>
</g>
</svg>
