<svg width="37" height="38" viewBox="0 0 37 38" fill="none" xmlns="http://www.w3.org/2000/svg">
<path d="M18.3333 37.3888C28.4586 37.3888 36.6667 29.1807 36.6667 19.0555C36.6667 8.93028 28.4586 0.722168 18.3333 0.722168C8.20811 0.722168 0 8.93028 0 19.0555C0 29.1807 8.20811 37.3888 18.3333 37.3888Z" fill="#627EEA"/>
<path d="M18.9048 5.30273V15.4668L27.4951 19.3058L18.9048 5.30273Z" fill="white" fill-opacity="0.602"/>
<path d="M18.9048 5.30273L10.3145 19.3058L18.9048 15.4668V5.30273Z" fill="white"/>
<path d="M18.9048 25.8916V32.7979L27.5001 20.9048L18.9048 25.8916Z" fill="white" fill-opacity="0.602"/>
<path d="M18.9048 32.7979V25.8916L10.3145 20.9048L18.9048 32.7979Z" fill="white"/>
<path d="M18.9048 24.2927L27.4951 19.3059L18.9048 15.4668V24.2927Z" fill="white" fill-opacity="0.2"/>
<path d="M10.3145 19.3059L18.9048 24.2927V15.4668L10.3145 19.3059Z" fill="white" fill-opacity="0.602"/>
</svg>
