<svg width="22" height="22" viewBox="0 0 22 22" fill="none" xmlns="http://www.w3.org/2000/svg">
<path d="M10.9301 0C6.36836 0 5.03423 0.00470592 4.7749 0.0262187C3.83876 0.104034 3.25624 0.251431 2.62161 0.5674C2.13253 0.810259 1.74681 1.09177 1.36614 1.4864C0.672853 2.20607 0.252682 3.09145 0.10058 4.1439C0.0266295 4.65483 0.00511676 4.75903 0.000746972 7.3688C-0.000933715 8.23872 0.000746972 9.38361 0.000746972 10.9193C0.000746972 15.4773 0.00578903 16.8101 0.027638 17.0689C0.103269 17.9798 0.246127 18.5529 0.548651 19.1798C1.12681 20.3798 2.23102 21.2807 3.53187 21.6168C3.98229 21.7328 4.47978 21.7967 5.11844 21.8269C5.38903 21.8387 8.14703 21.8471 10.9067 21.8471C13.6664 21.8471 16.4261 21.8437 16.69 21.8303C17.4295 21.7955 17.8589 21.7378 18.3337 21.6151C18.9787 21.4497 19.5798 21.1455 20.0951 20.7237C20.6103 20.3019 21.0273 19.7727 21.3169 19.1731C21.6135 18.5613 21.764 17.9664 21.832 17.103C21.8468 16.9148 21.853 13.9136 21.853 10.9164C21.853 7.91872 21.8463 4.92307 21.8315 4.73483C21.7626 3.85751 21.6122 3.26759 21.306 2.64406C21.0547 2.13363 20.7757 1.75245 20.3707 1.3627C19.648 0.672275 18.7639 0.252103 17.7103 0.100169C17.1999 0.0263868 17.0982 0.00453785 14.4864 0H10.9301Z" fill="url(#paint0_radial_6801_1047)"/>
<path d="M10.9301 0C6.36836 0 5.03423 0.00470592 4.7749 0.0262187C3.83876 0.104034 3.25624 0.251431 2.62161 0.5674C2.13253 0.810259 1.74681 1.09177 1.36614 1.4864C0.672853 2.20607 0.252682 3.09145 0.10058 4.1439C0.0266295 4.65483 0.00511676 4.75903 0.000746972 7.3688C-0.000933715 8.23872 0.000746972 9.38361 0.000746972 10.9193C0.000746972 15.4773 0.00578903 16.8101 0.027638 17.0689C0.103269 17.9798 0.246127 18.5529 0.548651 19.1798C1.12681 20.3798 2.23102 21.2807 3.53187 21.6168C3.98229 21.7328 4.47978 21.7967 5.11844 21.8269C5.38903 21.8387 8.14703 21.8471 10.9067 21.8471C13.6664 21.8471 16.4261 21.8437 16.69 21.8303C17.4295 21.7955 17.8589 21.7378 18.3337 21.6151C18.9787 21.4497 19.5798 21.1455 20.0951 20.7237C20.6103 20.3019 21.0273 19.7727 21.3169 19.1731C21.6135 18.5613 21.764 17.9664 21.832 17.103C21.8468 16.9148 21.853 13.9136 21.853 10.9164C21.853 7.91872 21.8463 4.92307 21.8315 4.73483C21.7626 3.85751 21.6122 3.26759 21.306 2.64406C21.0547 2.13363 20.7757 1.75245 20.3707 1.3627C19.648 0.672275 18.7639 0.252103 17.7103 0.100169C17.1999 0.0263868 17.0982 0.00453785 14.4864 0H10.9301Z" fill="url(#paint1_radial_6801_1047)"/>
<path d="M10.925 2.85693C8.73403 2.85693 8.45907 2.86651 7.59856 2.90567C6.73973 2.945 6.15351 3.08097 5.64056 3.28047C5.10997 3.48652 4.65988 3.76215 4.21147 4.21073C3.76273 4.65913 3.4871 5.10922 3.28037 5.63965C3.08037 6.15276 2.94424 6.73915 2.90558 7.59765C2.86726 8.45816 2.85718 8.73329 2.85718 10.9242C2.85718 13.1152 2.86693 13.3893 2.90592 14.2498C2.94541 15.1086 3.08138 15.6949 3.28071 16.2078C3.48693 16.7384 3.76256 17.1885 4.21114 17.6369C4.65938 18.0856 5.10947 18.3619 5.63972 18.568C6.153 18.7675 6.73939 18.9035 7.59806 18.9428C8.45857 18.9819 8.73336 18.9915 10.9241 18.9915C13.1152 18.9915 13.3894 18.9819 14.2499 18.9428C15.1087 18.9035 15.6956 18.7675 16.2089 18.568C16.7393 18.3619 17.1887 18.0856 17.637 17.6369C18.0857 17.1885 18.3613 16.7384 18.5681 16.208C18.7664 15.6949 18.9025 15.1085 18.9429 14.25C18.9815 13.3895 18.9916 13.1152 18.9916 10.9242C18.9916 8.73329 18.9815 8.45832 18.9429 7.59781C18.9025 6.73898 18.7664 6.15276 18.5681 5.63981C18.3613 5.10922 18.0857 4.65913 17.637 4.21073C17.1882 3.76198 16.7395 3.48635 16.2084 3.28047C15.6941 3.08097 15.1075 2.945 14.2487 2.90567C13.3882 2.86651 13.1142 2.85693 10.9226 2.85693H10.925ZM10.2013 4.31073C10.4161 4.31039 10.6557 4.31073 10.925 4.31073C13.0789 4.31073 13.3342 4.31846 14.1848 4.35711C14.9714 4.39308 15.3983 4.52451 15.6827 4.63493C16.0591 4.78115 16.3275 4.95594 16.6097 5.2383C16.8921 5.52065 17.0669 5.78956 17.2134 6.16604C17.3239 6.45007 17.4554 6.87697 17.4912 7.66353C17.5299 8.51396 17.5383 8.76942 17.5383 10.9224C17.5383 13.0753 17.5299 13.3308 17.4912 14.1812C17.4553 14.9678 17.3239 15.3947 17.2134 15.6787C17.0672 16.0552 16.8921 16.3233 16.6097 16.6055C16.3274 16.8878 16.0593 17.0626 15.6827 17.2088C15.3986 17.3197 14.9714 17.4508 14.1848 17.4868C13.3344 17.5255 13.0789 17.5339 10.925 17.5339C8.77084 17.5339 8.51554 17.5255 7.66512 17.4868C6.87855 17.4505 6.45166 17.3191 6.16712 17.2086C5.79065 17.0624 5.52174 16.8876 5.23938 16.6053C4.95703 16.3229 4.78224 16.0547 4.63568 15.6781C4.52526 15.394 4.39366 14.9671 4.35786 14.1806C4.31921 13.3301 4.31148 13.0747 4.31148 10.9204C4.31148 8.76606 4.31921 8.51194 4.35786 7.66151C4.39383 6.87495 4.52526 6.44806 4.63568 6.16368C4.7819 5.78721 4.95703 5.5183 5.23938 5.23594C5.52174 4.95359 5.79065 4.7788 6.16712 4.63224C6.45149 4.52132 6.87855 4.39022 7.66512 4.35409C8.40932 4.32048 8.69773 4.31039 10.2013 4.30871V4.31073ZM15.2312 5.65023C15.0397 5.65023 14.8526 5.70702 14.6934 5.81341C14.5342 5.9198 14.4101 6.07101 14.3368 6.24792C14.2635 6.42483 14.2444 6.6195 14.2818 6.8073C14.3192 6.99509 14.4114 7.16759 14.5468 7.30296C14.6822 7.43834 14.8548 7.53051 15.0426 7.56782C15.2304 7.60514 15.425 7.58592 15.6019 7.5126C15.7788 7.43928 15.93 7.31514 16.0363 7.1559C16.1427 6.99665 16.1994 6.80945 16.1993 6.61797C16.1993 6.08351 15.7657 5.6499 15.2312 5.6499V5.65023ZM10.925 6.78134C8.63706 6.78134 6.78208 8.63631 6.78208 10.9242C6.78208 13.2121 8.63706 15.0663 10.925 15.0663C13.2129 15.0663 15.0674 13.2121 15.0674 10.9242C15.0674 8.63631 13.2127 6.78134 10.9248 6.78134H10.925ZM10.925 8.23513C12.41 8.23513 13.6141 9.43901 13.6141 10.9242C13.6141 12.4093 12.41 13.6133 10.925 13.6133C9.43975 13.6133 8.23588 12.4093 8.23588 10.9242C8.23588 9.43901 9.43975 8.23513 10.925 8.23513Z" fill="white"/>
<defs>
<radialGradient id="paint0_radial_6801_1047" cx="0" cy="0" r="1" gradientUnits="userSpaceOnUse" gradientTransform="translate(5.80474 23.5298) rotate(-90) scale(21.6521 20.1436)">
<stop stop-color="#FFDD55"/>
<stop offset="0.1" stop-color="#FFDD55"/>
<stop offset="0.5" stop-color="#FF543E"/>
<stop offset="1" stop-color="#C837AB"/>
</radialGradient>
<radialGradient id="paint1_radial_6801_1047" cx="0" cy="0" r="1" gradientUnits="userSpaceOnUse" gradientTransform="translate(-3.6605 1.57383) rotate(78.6776) scale(9.67866 39.9059)">
<stop stop-color="#3771C8"/>
<stop offset="0.128" stop-color="#3771C8"/>
<stop offset="1" stop-color="#6600FF" stop-opacity="0"/>
</radialGradient>
</defs>
</svg>
