<svg xmlns="http://www.w3.org/2000/svg" width="135" height="96" viewBox="0 0 135 96" fill="none">
                        <g clip-path="url(#clip0_6775_15726)">
                          <path d="M39.712 7.12695H94.6853C102.557 7.12695 108.938 13.5079 108.938 21.3793V54.9741C108.938 76.9013 91.1621 94.6769 69.2346 94.6769H65.1626C43.2353 94.6769 25.4597 76.9013 25.4597 54.9741V21.3793C25.4597 13.5079 31.8407 7.12695 39.712 7.12695Z" fill="#AAC1D4"/>
                          <path d="M74.5965 7.12695H94.6851C102.556 7.12695 108.938 13.5079 108.938 21.3793V30.3741L48.3565 90.9551C35.191 84.7952 25.9627 71.6221 25.4795 56.244L74.5965 7.12695Z" fill="#C2D1DD"/>
                          <path d="M39.7125 0H94.6858C102.557 0 108.938 6.38098 108.938 14.2523V49.8831C108.938 70.6859 92.0742 87.55 71.2712 87.55H63.127C42.3242 87.55 25.4602 70.6859 25.4602 49.8831V14.2523C25.4602 6.38098 31.8412 0 39.7125 0Z" fill="#C2D1DD"/>
                          <path d="M39.7125 9.16221C36.9013 9.16221 34.6224 11.4411 34.6224 14.2523V49.8831C34.6224 65.6258 47.3843 78.3878 63.127 78.3878H71.2712C87.0139 78.3878 99.7759 65.6258 99.7759 49.8831V14.2523C99.7759 11.4411 97.4969 9.16221 94.6858 9.16221H39.7125ZM39.7125 0H94.6858C102.557 0 108.938 6.38098 108.938 14.2523V49.8831C108.938 70.6859 92.0742 87.55 71.2712 87.55H63.127C42.3242 87.55 25.4602 70.6859 25.4602 49.8831V14.2523C25.4602 6.38098 31.8412 0 39.7125 0Z" fill="#D6E4EF"/>
                          <path d="M81.7247 0H94.6872C102.559 0 108.94 6.38098 108.94 14.2523V30.3734L53.1098 86.203C39.0216 82.3255 28.2387 70.4707 25.9238 55.8009L81.7247 0Z" fill="#D1DCE5"/>
                          <path d="M34.6238 47.101V49.8831C34.6238 64.9109 46.253 77.2224 61.0031 78.3097L53.1098 86.203C39.0216 82.3255 28.2387 70.4707 25.9238 55.8009L34.6238 47.101ZM99.7773 39.5355V14.2523C99.7773 11.4411 97.4985 9.16221 94.6872 9.16221H72.5625L81.7247 0H94.6872C102.559 0 108.94 6.38098 108.94 14.2523V30.3734L99.7773 39.5355Z" fill="#E0EAF3"/>
                          <path fill-rule="evenodd" clip-rule="evenodd" d="M60.9968 46.2639C58.4879 44.477 56.864 41.6252 56.864 38.4121C56.864 33.0008 61.4699 28.6143 67.1517 28.6143C72.8334 28.6143 77.4393 33.0008 77.4393 38.4121C77.4393 41.6899 75.7493 44.5916 73.154 46.3703L75.7887 53.2666C76.4979 55.1228 75.4344 57.1555 73.4132 57.8068C73.0004 57.9398 72.5663 58.0076 72.1291 58.0076H61.9812C59.8392 58.0076 58.1026 56.4129 58.1026 54.4458C58.1026 54.0442 58.1767 53.6456 58.3215 53.2666L60.9968 46.2639Z" fill="#8097AA"/>
                        </g>
                <defs>
                  <clipPath id="clip0_6775_15726">
                    <rect width="134.4" height="96" fill="white"/>
                  </clipPath>
                </defs>
                </svg>