<svg xmlns="http://www.w3.org/2000/svg" width="115" height="115" viewBox="6 0 45 70" fill="none">
                        <path d="M15.425 48.4229H42.0784" stroke="#D8D8D8" stroke-width="1.65549" stroke-linecap="round"></path>
                        <mask id="mask0_6775_15860" style="mask-type:luminance" maskUnits="userSpaceOnUse" x="0" y="0" width="58" height="58">
                          <path d="M0 0H58V57.9421H0V0Z" fill="white"></path>
                        </mask>
                        <g mask="url(#mask0_6775_15860)">
                          <mask id="mask1_6775_15860" style="mask-type:luminance" maskUnits="userSpaceOnUse" x="-44" y="4" width="117" height="59">
                            <path d="M-43.8042 4.63525H72.0799V62.5773H-43.8042V4.63525Z" fill="white"></path>
                          </mask>
                          <g mask="url(#mask1_6775_15860)">
                            <mask id="mask2_6775_15860" style="mask-type:luminance" maskUnits="userSpaceOnUse" x="-44" y="4" width="117" height="59">
                              <path d="M-43.8042 4.63525H72.0799V62.5773H-43.8042V4.63525Z" fill="white"></path>
                            </mask>
                            <g mask="url(#mask2_6775_15860)">
                              <path d="M27.0792 21.9312H31.3484C31.8004 21.9312 32.1689 22.2997 32.1689 22.7516V24.5872C32.1689 25.0392 31.8004 25.4077 31.3484 25.4077H27.0792C26.6273 25.4077 26.2588 25.0392 26.2588 24.5872V22.7516C26.2588 22.2997 26.6273 21.9312 27.0792 21.9312Z" fill="#FFBC00"></path>
                              <path d="M18.958 23.3213H39.1218C39.313 23.3213 39.4695 23.4777 39.4695 23.6689V25.0596C39.4695 25.2508 39.313 25.4072 39.1218 25.4072H18.958C18.7668 25.4072 18.6104 25.2508 18.6104 25.0596V23.6689C18.6104 23.4777 18.7668 23.3213 18.958 23.3213Z" fill="#FFBC00"></path>
                              <path d="M19.1423 24.7124H38.9376C39.6155 24.7124 40.1648 25.2617 40.1648 25.9396V36.3483C40.1648 37.0262 39.6155 37.5755 38.9376 37.5755H19.1423C18.4643 37.5755 17.915 37.0262 17.915 36.3483V25.9396C17.915 25.2617 18.4643 24.7124 19.1423 24.7124Z" fill="#854623"></path>
                              <path d="M19.1423 24.7124H38.9376C39.6155 24.7124 40.1648 25.2617 40.1648 25.9396V36.3483C40.1648 37.0262 39.6155 37.5755 38.9376 37.5755H19.1423C18.4643 37.5755 17.915 37.0262 17.915 36.3483V25.9396C17.915 25.2617 18.4643 24.7124 19.1423 24.7124Z" stroke="#AA562A" stroke-width="1.63849"></path>
                            </g>
                            <mask id="mask3_6775_15860" style="mask-type:luminance" maskUnits="userSpaceOnUse" x="27" y="26" width="12" height="13">
                              <path d="M30.5222 26.1025L38.5816 28.262L35.8822 38.3362L27.8228 36.1767L30.5222 26.1025Z" fill="white"></path>
                            </mask>
                            <g mask="url(#mask3_6775_15860)">
                              <path d="M30.6202 28.0873L33.8942 27.165C34.3349 27.0384 34.8084 27.1652 35.13 27.4962L37.5009 29.931C37.8084 30.2474 37.9281 30.7005 37.8139 31.127L36.7251 35.1903C36.6108 35.6168 36.2806 35.9494 35.8561 36.0696L32.5854 36.9928C32.1423 37.1152 31.6688 36.9883 31.3496 36.6616L28.9754 34.2259C28.6712 33.9104 28.5515 33.4573 28.6658 33.0308L29.7545 28.9675C29.8688 28.5411 30.199 28.2084 30.6202 28.0873Z" fill="#D71717"></path>
                            </g>
                            <mask id="mask4_6775_15860" style="mask-type:luminance" maskUnits="userSpaceOnUse" x="20" y="23" width="12" height="13">
                              <path d="M20.8701 25.4038L29.0314 23.6691L31.1999 33.8707L23.0385 35.6055L20.8701 25.4038Z" fill="white"></path>
                            </mask>
                            <g mask="url(#mask4_6775_15860)">
                              <path d="M21.8584 27.1276L24.3568 24.8194C24.6919 24.5065 25.1714 24.4046 25.6082 24.5534L28.8261 25.6465C29.2437 25.7888 29.5561 26.1382 29.6479 26.5701L30.5225 30.6848C30.6143 31.1166 30.4711 31.5629 30.1474 31.8628L27.6523 34.1702C27.3131 34.4804 26.8336 34.5824 26.4009 34.4362L23.1797 33.3438C22.7654 33.2008 22.453 32.8514 22.3612 32.4195L21.4866 28.3048C21.3948 27.873 21.5381 27.4267 21.8584 27.1276Z" fill="#FF4B4B"></path>
                              <mask id="mask5_6775_15860" style="mask-type:luminance" maskUnits="userSpaceOnUse" x="-1" y="25" width="22" height="18">
                                <path d="M-0.898784 29.8165L16.5921 42.6766L20.7822 38.6746L3.29509 25.6506L-0.898784 29.8165Z" fill="white" fill-opacity="0.65"></path>
                              </mask>
                              <g mask="url(#mask5_6775_15860)">
                              </g>
                              <mask id="mask6_6775_15860" style="mask-type:luminance" maskUnits="userSpaceOnUse" x="14" y="24" width="12" height="14">
                                <path d="M16.5489 24.8831L14.5972 25.4195L22.0795 37.4686L25.2538 36.8243L16.5489 24.8831Z" fill="white"></path>
                              </mask>
                              <g mask="url(#mask6_6775_15860)">
                                <path d="M22.6875 27.6009L24.6863 25.7544C24.9544 25.504 25.338 25.4225 25.6874 25.5416L28.2617 26.4161C28.5958 26.5299 28.8457 26.8094 28.9192 27.1549L29.6189 30.4466C29.6923 30.7921 29.5777 31.1492 29.3187 31.389L27.3227 33.235C27.0513 33.4832 26.6677 33.5647 26.3216 33.4478L23.7446 32.5739C23.4132 32.4595 23.1632 32.1799 23.0898 31.8344L22.3901 28.5427C22.3167 28.1972 22.4313 27.8402 22.6875 27.6009Z" fill="white"></path>
                              </g>
                              <path d="M25.269 25.808C25.2539 25.7366 25.2591 25.6608 25.2835 25.5917C25.3533 25.3849 25.5824 25.2758 25.7899 25.349L28.3617 26.2453C28.4343 26.269 28.4935 26.3133 28.5405 26.3672C28.6803 26.5401 28.6554 26.7907 28.4825 26.9305L26.4528 28.5845C26.4049 28.6267 26.3465 28.6533 26.2853 28.6663C26.0677 28.7126 25.8574 28.576 25.8111 28.3584L25.269 25.808Z" fill="#FFA6A6"></path>
                              <mask id="mask7_6775_15860" style="mask-type:luminance" maskUnits="userSpaceOnUse" x="12" y="20" width="15" height="17">
                                <path d="M15.2622 20.9923L12.8195 21.6634L22.1695 36.7254L26.1401 35.9194L15.2622 20.9923Z" fill="white"></path>
                              </mask>
                              <g mask="url(#mask7_6775_15860)">
                                <path d="M25.2688 25.808C25.2536 25.7366 25.2588 25.6608 25.2832 25.5917C25.353 25.3849 25.5822 25.2758 25.7897 25.349L28.3615 26.2453C28.4341 26.269 28.4932 26.3133 28.5402 26.3672C28.6801 26.5401 28.6551 26.7907 28.4822 26.9305L26.4525 28.5845C26.4046 28.6267 26.3463 28.6533 26.2851 28.6663C26.0675 28.7126 25.8572 28.576 25.8109 28.3584L25.2688 25.808Z" fill="white"></path>
                              </g>
                            </g>
                            <mask id="mask8_6775_15860" style="mask-type:luminance" maskUnits="userSpaceOnUse" x="22" y="28" width="14" height="14">
                              <path d="M22.6084 33.2021L29.5256 28.5364L35.3577 37.1829L28.4405 41.8486L22.6084 33.2021Z" fill="white"></path>
                            </mask>
                            <g mask="url(#mask8_6775_15860)">
                              <path d="M24.1703 34.43L25.6222 31.354C25.8156 30.9383 26.222 30.6642 26.6828 30.6386L30.0758 30.4466C30.5164 30.4221 30.9369 30.629 31.1838 30.9951L33.5361 34.4825C33.783 34.8485 33.8173 35.316 33.6296 35.7152L32.1806 38.7893C31.9822 39.2041 31.5759 39.4782 31.1199 39.5047L27.724 39.6986C27.2864 39.7212 26.8658 39.5143 26.6189 39.1482L24.2666 35.6608C24.0197 35.2948 23.9854 34.8273 24.1703 34.43Z" fill="#DD2F2F"></path>
                            </g>
                            <mask id="mask9_6775_15860" style="mask-type:luminance" maskUnits="userSpaceOnUse" x="28" y="27" width="13" height="14">
                              <path d="M34.0027 27.4937L40.9199 32.1594L35.0877 40.8059L28.1705 36.1402L34.0027 27.4937Z" fill="white"></path>
                            </mask>
                            <g mask="url(#mask9_6775_15860)">
                              <path d="M33.4493 29.4019L36.8452 29.5958C37.3031 29.6195 37.7095 29.8936 37.9059 30.3112L39.3549 33.3853C39.5427 33.7845 39.5083 34.252 39.2614 34.618L36.9091 38.1054C36.6622 38.4715 36.2417 38.6784 35.8012 38.6539L32.4081 38.462C31.9493 38.4334 31.5429 38.1593 31.3475 37.7465L29.8956 34.6705C29.7107 34.2732 29.745 33.8058 29.9919 33.4397L32.3442 29.9523C32.5911 29.5863 33.0117 29.3793 33.4493 29.4019Z" fill="#FF4B4B"></path>
                              <path d="M36.6721 31.0451L35.2141 33.2067C35.0896 33.3911 34.8406 33.437 34.659 33.3146C34.6072 33.2796 34.5631 33.233 34.5344 33.176L33.2693 30.8801C33.1642 30.6876 33.235 30.446 33.4294 30.3381C33.4903 30.3037 33.5646 30.2867 33.6379 30.29L36.3611 30.4243C36.5809 30.4342 36.7496 30.6193 36.7397 30.8391C36.7365 30.9123 36.7129 30.9845 36.6721 31.0451Z" fill="#FFA6A6"></path>
                            </g>
                            <mask id="mask10_6775_15860" style="mask-type:luminance" maskUnits="userSpaceOnUse" x="16" y="27" width="14" height="14">
                              <path d="M16.6982 32.3535L23.9037 27.4934L29.7358 36.1399L22.5304 41L16.6982 32.3535Z" fill="white"></path>
                            </mask>
                            <g mask="url(#mask10_6775_15860)">
                              <path d="M18.4455 33.7748L19.8734 30.7191C20.0669 30.3034 20.4761 30.0274 20.9369 30.0018L24.3049 29.8225C24.7426 29.7999 25.1602 30.0088 25.4052 30.372L27.7614 33.8651C28.0063 34.2283 28.0436 34.6938 27.8586 35.0911L26.4308 38.1468C26.2344 38.5644 25.8251 38.8404 25.3672 38.8641L21.9992 39.0434C21.5616 39.066 21.1439 38.8571 20.8989 38.4939L18.5427 35.0007C18.2978 34.6376 18.2606 34.1721 18.4455 33.7748Z" fill="#FF4B4B"></path>
                              <path d="M20.9271 31.3173C20.8914 31.2587 20.873 31.193 20.8685 31.127C20.858 30.9081 21.0289 30.7211 21.2478 30.7106L22.179 30.6715C22.3666 30.665 22.532 30.7875 22.5835 30.9675L23.3414 33.7996C23.3859 33.9727 23.3158 34.1512 23.1643 34.244C22.9748 34.3583 22.7305 34.2961 22.6162 34.1102L20.9271 31.3173Z" fill="#FFA6A6"></path>
                            </g>
                            <path d="M18.0889 34.7939H39.991V47.6571H18.0889V34.7939Z" fill="#AA562A"></path>
                            <path d="M19.9692 43.7223V42.9019H36.7191V43.7223H19.9692Z" fill="#8F4720"></path>
                            <path d="M19.9692 39.2033V38.3828H36.7191V39.2033H19.9692Z" fill="#8F4720"></path>
                            <mask id="mask11_6775_15860" style="mask-type:luminance" maskUnits="userSpaceOnUse" x="-44" y="4" width="117" height="59">
                              <path d="M-43.8042 4.63525H72.0799V62.5773H-43.8042V4.63525Z" fill="white"></path>
                            </mask>
                            <g mask="url(#mask11_6775_15860)">
                              <mask id="mask12_6775_15860" style="mask-type:luminance" maskUnits="userSpaceOnUse" x="20" y="45" width="18" height="3">
                                <path d="M20.5225 45.9189H37.2098V47.6572H20.5225V45.9189Z" fill="white"></path>
                              </mask>
                              <g mask="url(#mask12_6775_15860)">
                                <path d="M20.5225 45.9189H37.2098V47.6572H20.5225V45.9189Z" fill="#FFBC00"></path>
                                <mask id="mask13_6775_15860" style="mask-type:alpha" maskUnits="userSpaceOnUse" x="20" y="45" width="18" height="3">
                                  <path d="M20.5225 45.9189H37.2098V47.6572H20.5225V45.9189Z" fill="#FF0000"></path>
                                  <path d="M20.5225 45.9189H37.2098V47.6572H20.5225V45.9189Z" fill="#FFBC00"></path>
                                </mask>
                                <g mask="url(#mask13_6775_15860)">
                                  <path d="M34.5332 41.6465L37.4847 44.5981L30.8481 51.2347L27.8965 48.2832L34.5332 41.6465Z" fill="#FFD300"></path>
                                </g>
                                <mask id="mask14_6775_15860" style="mask-type:alpha" maskUnits="userSpaceOnUse" x="20" y="45" width="18" height="3">
                                  <path d="M20.5225 45.9189H37.2098V47.6572H20.5225V45.9189Z" fill="#FF0000"></path>
                                  <path d="M20.5225 45.9189H37.2098V47.6572H20.5225V45.9189Z" fill="#FFBC00"></path>
                                </mask>
                                <g mask="url(#mask14_6775_15860)">
                                  <path d="M24.1037 41.6465L27.0553 44.5981L20.4186 51.2347L17.467 48.2832L24.1037 41.6465Z" fill="#FFD300"></path>
                                </g>
                              </g>
                              <mask id="mask15_6775_15860" style="mask-type:luminance" maskUnits="userSpaceOnUse" x="17" y="33" width="5" height="15">
                                <path d="M17.0459 33.7515H21.913V47.6576H17.0459V33.7515Z" fill="white"></path>
                              </mask>
                              <g mask="url(#mask15_6775_15860)">
                                <path d="M17.8664 33.7515H21.0926C21.5445 33.7515 21.913 34.12 21.913 34.5719V46.8371C21.913 47.289 21.5445 47.6576 21.0926 47.6576H17.8664C17.4144 47.6576 17.0459 47.289 17.0459 46.8371V34.5719C17.0459 34.12 17.4144 33.7515 17.8664 33.7515Z" fill="#FFBC00"></path>
                                <mask id="mask16_6775_15860" style="mask-type:alpha" maskUnits="userSpaceOnUse" x="17" y="33" width="5" height="15">
                                  <path d="M17.8664 33.7515H21.0926C21.5445 33.7515 21.913 34.12 21.913 34.5719V46.8371C21.913 47.289 21.5445 47.6576 21.0926 47.6576H17.8664C17.4144 47.6576 17.0459 47.289 17.0459 46.8371V34.5719C17.0459 34.12 17.4144 33.7515 17.8664 33.7515Z" fill="#FF0000"></path>
                                  <path d="M17.8664 33.7515H21.0926C21.5445 33.7515 21.913 34.12 21.913 34.5719V46.8371C21.913 47.289 21.5445 47.6576 21.0926 47.6576H17.8664C17.4144 47.6576 17.0459 47.289 17.0459 46.8371V34.5719C17.0459 34.12 17.4144 33.7515 17.8664 33.7515Z" fill="#FFBC00"></path>
                                </mask>
                                <g mask="url(#mask16_6775_15860)">
                                  <path d="M12.3467 42.9069L22.0983 33.1553L24.9908 36.0477L15.2391 45.7994L12.3467 42.9069Z" fill="#FFD200"></path>
                                </g>
                                <mask id="mask17_6775_15860" style="mask-type:alpha" maskUnits="userSpaceOnUse" x="17" y="33" width="5" height="15">
                                  <path d="M17.8664 33.7515H21.0926C21.5445 33.7515 21.913 34.12 21.913 34.5719V46.8371C21.913 47.289 21.5445 47.6576 21.0926 47.6576H17.8664C17.4144 47.6576 17.0459 47.289 17.0459 46.8371V34.5719C17.0459 34.12 17.4144 33.7515 17.8664 33.7515Z" fill="#FF0000"></path>
                                  <path d="M17.8664 33.7515H21.0926C21.5445 33.7515 21.913 34.12 21.913 34.5719V46.8371C21.913 47.289 21.5445 47.6576 21.0926 47.6576H17.8664C17.4144 47.6576 17.0459 47.289 17.0459 46.8371V34.5719C17.0459 34.12 17.4144 33.7515 17.8664 33.7515Z" fill="#FFBC00"></path>
                                </mask>
                                <g mask="url(#mask17_6775_15860)">
                                  <path d="M12.3467 52.3141L22.0983 42.5625L24.9908 45.455L15.2391 55.2066L12.3467 52.3141Z" fill="#FFD200"></path>
                                </g>
                              </g>
                              <mask id="mask18_6775_15860" style="mask-type:luminance" maskUnits="userSpaceOnUse" x="36" y="33" width="6" height="15">
                                <path d="M36.1667 33.7515H41.0339V47.6576H36.1667V33.7515Z" fill="white"></path>
                              </mask>
                              <g mask="url(#mask18_6775_15860)">
                                <path d="M36.9872 33.7515H40.2134C40.6654 33.7515 41.0339 34.12 41.0339 34.5719V46.8371C41.0339 47.289 40.6654 47.6576 40.2134 47.6576H36.9872C36.5353 47.6576 36.1667 47.289 36.1667 46.8371V34.5719C36.1667 34.12 36.5353 33.7515 36.9872 33.7515Z" fill="#FFBC00"></path>
                                <mask id="mask19_6775_15860" style="mask-type:alpha" maskUnits="userSpaceOnUse" x="36" y="33" width="6" height="15">
                                  <path d="M36.9872 33.7515H40.2134C40.6654 33.7515 41.0339 34.12 41.0339 34.5719V46.8371C41.0339 47.289 40.6654 47.6576 40.2134 47.6576H36.9872C36.5353 47.6576 36.1667 47.289 36.1667 46.8371V34.5719C36.1667 34.12 36.5353 33.7515 36.9872 33.7515Z" fill="#FF0000"></path>
                                  <path d="M36.9872 33.7515H40.2134C40.6654 33.7515 41.0339 34.12 41.0339 34.5719V46.8371C41.0339 47.289 40.6654 47.6576 40.2134 47.6576H36.9872C36.5353 47.6576 36.1667 47.289 36.1667 46.8371V34.5719C36.1667 34.12 36.5353 33.7515 36.9872 33.7515Z" fill="#FFBC00"></path>
                                </mask>
                                <g mask="url(#mask19_6775_15860)">
                                  <path d="M31.4644 43.03L41.216 33.2783L44.9115 36.9739L35.1599 46.7255L31.4644 43.03Z" fill="#FFD200"></path>
                                </g>
                              </g>
                              <mask id="mask20_6775_15860" style="mask-type:luminance" maskUnits="userSpaceOnUse" x="-44" y="4" width="117" height="59">
                                <path d="M-43.8042 4.63525H72.0799V62.5773H-43.8042V4.63525Z" fill="white"></path>
                              </mask>
                              <g mask="url(#mask20_6775_15860)">
                                <path d="M26.5578 33.7515H31.5222C31.9742 33.7515 32.3427 34.12 32.3427 34.5719V40.927C32.3427 41.379 31.9742 41.7475 31.5222 41.7475H26.5578C26.1058 41.7475 25.7373 41.379 25.7373 40.927V34.5719C25.7373 34.12 26.1058 33.7515 26.5578 33.7515Z" fill="#FFBC00"></path>
                                <mask id="mask21_6775_15860" style="mask-type:luminance" maskUnits="userSpaceOnUse" x="27" y="35" width="4" height="6">
                                  <path d="M27.4756 35.1416H30.6045V40.0087H27.4756V35.1416Z" fill="white"></path>
                                </mask>
                                <g mask="url(#mask21_6775_15860)">
                                  <path d="M29.04 35.1416C29.9034 35.1416 30.6045 35.8686 30.6045 36.7639C30.6045 37.6593 29.9034 38.3862 29.04 38.3862C28.1766 38.3862 27.4756 37.6593 27.4756 36.7639C27.4756 35.8686 28.1766 35.1416 29.04 35.1416Z" fill="#DB8500"></path>
                                  <path d="M29.8265 37.7254L30.3549 39.2238C30.4627 39.5298 30.2993 39.867 29.9933 39.9748C29.9308 39.9991 29.8647 40.0095 29.7986 40.0095H28.2551C27.9283 40.0095 27.6641 39.7453 27.6641 39.4185C27.6641 39.3525 27.6745 39.2864 27.6988 39.2238L28.2238 37.7254C28.3802 37.2804 28.8635 37.0475 29.3085 37.204C29.5518 37.2874 29.743 37.4821 29.8265 37.7254Z" fill="#DB8500"></path>
                                </g>
                              </g>
                            </g>
                            <mask id="mask22_6775_15860" style="mask-type:luminance" maskUnits="userSpaceOnUse" x="27" y="35" width="4" height="6">
                              <path d="M27.4756 35.1416H30.6045V40.0087H27.4756V35.1416Z" fill="white"></path>
                            </mask>
                            <g mask="url(#mask22_6775_15860)">
                              <path d="M29.04 35.1416C29.9034 35.1416 30.6045 35.8686 30.6045 36.7639C30.6045 37.6593 29.9034 38.3862 29.04 38.3862C28.1766 38.3862 27.4756 37.6593 27.4756 36.7639C27.4756 35.8686 28.1766 35.1416 29.04 35.1416Z" fill="#DB8500"></path>
                              <path d="M29.8265 37.7254L30.3549 39.2238C30.4627 39.5298 30.2993 39.867 29.9933 39.9748C29.9308 39.9991 29.8647 40.0095 29.7986 40.0095H28.2551C27.9283 40.0095 27.6641 39.7453 27.6641 39.4185C27.6641 39.3525 27.6745 39.2864 27.6988 39.2238L28.2238 37.7254C28.3802 37.2804 28.8635 37.0475 29.3085 37.204C29.5518 37.2874 29.743 37.4821 29.8265 37.7254Z" fill="#DB8500"></path>
                            </g>
                            <path d="M19.6533 35.4893C20.133 35.4893 20.5224 35.8787 20.5224 36.3584C20.5224 36.8381 20.133 37.2275 19.6533 37.2275C19.1736 37.2275 18.7842 36.8381 18.7842 36.3584C18.7842 35.8787 19.1736 35.4893 19.6533 35.4893Z" fill="#F8A201"></path>
                            <path d="M19.6533 44.1807C20.133 44.1807 20.5224 44.5701 20.5224 45.0498C20.5224 45.5295 20.133 45.9189 19.6533 45.9189C19.1736 45.9189 18.7842 45.5295 18.7842 45.0498C18.7842 44.5701 19.1736 44.1807 19.6533 44.1807Z" fill="#F8A201"></path>
                            <path d="M38.7744 44.1807C39.2541 44.1807 39.6435 44.5701 39.6435 45.0498C39.6435 45.5295 39.2541 45.9189 38.7744 45.9189C38.2947 45.9189 37.9053 45.5295 37.9053 45.0498C37.9053 44.5701 38.2947 44.1807 38.7744 44.1807Z" fill="#F8A201"></path>
                            <path d="M38.7744 35.4893C39.2541 35.4893 39.6435 35.8787 39.6435 36.3584C39.6435 36.8381 39.2541 37.2275 38.7744 37.2275C38.2947 37.2275 37.9053 36.8381 37.9053 36.3584C37.9053 35.8787 38.2947 35.4893 38.7744 35.4893Z" fill="#F8A201"></path>
                          </g>
                        </g>
                        <mask id="mask23_6775_15860" style="mask-type:luminance" maskUnits="userSpaceOnUse" x="12" y="24" width="16" height="16">
                          <path d="M12.2795 24.501H27.1789V39.4004H12.2795V24.501Z" fill="white"></path>
                        </mask>
                        <g mask="url(#mask23_6775_15860)">
                          <g opacity="0.392682">
                            <path d="M19.9838 32.7451C19.8506 32.882 19.6292 32.8843 19.4923 32.7511L18.9351 32.2057C18.7979 32.0711 18.796 31.8511 18.9291 31.7142L19.4745 31.1571C19.6091 31.0198 19.8287 31.0164 19.966 31.151L20.5232 31.6964C20.6601 31.8296 20.6638 32.0506 20.5292 32.1879L19.9838 32.7451Z" fill="white"></path>
                          </g>
                          <g opacity="0.0632136">
                            <path d="M20.0702 31.1847L19.4036 32.6714L20.0702 31.1847Z" fill="white"></path>
                            <path d="M20.0702 31.1847L19.4036 32.6714" stroke="white" stroke-width="0.205793" stroke-linecap="round"></path>
                          </g>
                          <g opacity="0.0632136">
                            <path d="M20.5203 32.1918L18.9703 31.6899L20.5203 32.1918Z" fill="white"></path>
                            <path d="M20.5203 32.1918L18.9703 31.6899" stroke="white" stroke-width="0.205794" stroke-linecap="round"></path>
                          </g>
                        </g>
                        <mask id="mask24_6775_15860" style="mask-type:luminance" maskUnits="userSpaceOnUse" x="25" y="35" width="10" height="10">
                          <path d="M25.9375 35.8413H34.2149V44.1187H25.9375V35.8413Z" fill="white"></path>
                        </mask>
                        <g mask="url(#mask24_6775_15860)">
                          <g opacity="0.01">
                            <path d="M30.0788 39.9749C30.0799 39.9749 30.0809 39.9758 30.081 39.977L30.0812 39.9817C30.0813 39.9829 30.0804 39.9839 30.0792 39.984L30.0744 39.9842C30.0733 39.9843 30.0723 39.9834 30.0722 39.9822L30.072 39.9774C30.0719 39.9763 30.0728 39.9752 30.074 39.9752L30.0788 39.9749Z" fill="white"></path>
                          </g>
                        </g>
                        <mask id="mask25_6775_15860" style="mask-type:luminance" maskUnits="userSpaceOnUse" x="26" y="29" width="8" height="8">
                          <path d="M26.9307 29.8813H33.5526V36.5033H26.9307V29.8813Z" fill="white"></path>
                        </mask>
                        <g mask="url(#mask25_6775_15860)">
                          <g opacity="0.220943">
                            <path d="M30.0328 33.3619C29.976 33.3379 29.9493 33.2716 29.9733 33.2149L30.0718 32.9834C30.0961 32.9263 30.162 32.8999 30.2188 32.9239L30.4502 33.0224C30.5073 33.0467 30.5341 33.1123 30.5098 33.1694L30.4113 33.4008C30.3873 33.4576 30.3213 33.4847 30.2643 33.4604L30.0328 33.3619Z" fill="white"></path>
                          </g>
                          <g opacity="0.01">
                            <path d="M30.2205 33.4524L30.2673 32.93L30.2205 33.4524Z" fill="white"></path>
                            <path d="M30.2205 33.4524L30.2673 32.93" stroke="white" stroke-width="0.0662431" stroke-linecap="round"></path>
                          </g>
                          <g opacity="0.01">
                            <path d="M30.0034 33.3013L30.4778 33.0778L30.0034 33.3013Z" fill="white"></path>
                            <path d="M30.0034 33.3013L30.4778 33.0778" stroke="white" stroke-width="0.0662431" stroke-linecap="round"></path>
                          </g>
                        </g>
                        <mask id="mask26_6775_15860" style="mask-type:luminance" maskUnits="userSpaceOnUse" x="15" y="20" width="12" height="12">
                          <path d="M15.3423 20.1138H26.2685V31.04H15.3423V20.1138Z" fill="white"></path>
                        </mask>
                        <g mask="url(#mask26_6775_15860)">
                          <g opacity="0.0634633">
                            <path d="M20.7737 25.4976C20.7863 25.4827 20.809 25.4809 20.8239 25.4936L20.8848 25.5455C20.8998 25.5583 20.9015 25.5808 20.8888 25.5957L20.8369 25.6566C20.8241 25.6715 20.8017 25.6734 20.7867 25.6606L20.7258 25.6087C20.7109 25.596 20.709 25.5734 20.7218 25.5585L20.7737 25.4976Z" fill="white"></path>
                          </g>
                        </g>
                        <mask id="mask27_6775_15860" style="mask-type:luminance" maskUnits="userSpaceOnUse" x="18" y="19" width="17" height="18">
                          <path d="M18.1565 19.7827H34.7114V36.3376H18.1565V19.7827Z" fill="white"></path>
                        </mask>
                        <g mask="url(#mask27_6775_15860)">
                          <g opacity="0.645017">
                            <path d="M26.5185 28.0592C26.5278 28.0761 26.5216 28.0977 26.5047 28.107L26.4355 28.1451C26.4184 28.1545 26.397 28.1482 26.3876 28.1313L26.3496 28.0621C26.3402 28.045 26.3463 28.0236 26.3634 28.0142L26.4326 27.9762C26.4495 27.9668 26.471 27.9729 26.4804 27.99L26.5185 28.0592Z" fill="white"></path>
                          </g>
                          <g opacity="0.813319">
                            <path d="M26.0544 28.4261L26.8147 27.681L26.0544 28.4261Z" fill="white"></path>
                            <path d="M26.0544 28.4261L26.8147 27.681" stroke="white" stroke-width="0.134465" stroke-linecap="round"></path>
                          </g>
                          <g opacity="0.813319">
                            <path d="M26.1944 27.5665L26.6752 28.5163L26.1944 27.5665Z" fill="white"></path>
                            <path d="M26.1944 27.5665L26.6752 28.5163" stroke="white" stroke-width="0.134465" stroke-linecap="round"></path>
                          </g>
                        </g>
                        <mask id="mask28_6775_15860" style="mask-type:luminance" maskUnits="userSpaceOnUse" x="22" y="25" width="12" height="12">
                          <path d="M22.4609 25.3286H33.3872V36.2548H22.4609V25.3286Z" fill="white"></path>
                        </mask>
                        <g mask="url(#mask28_6775_15860)">
                          <g opacity="0.01">
                            <path d="M27.9243 30.7918C27.9243 30.7918 27.9243 30.7919 27.9243 30.7919L27.9243 30.7921C27.9243 30.7921 27.9242 30.7922 27.9242 30.7922L27.924 30.7921C27.924 30.7921 27.9239 30.7921 27.9239 30.792L27.924 30.7918C27.924 30.7918 27.924 30.7918 27.9241 30.7918L27.9243 30.7918Z" fill="white"></path>
                          </g>
                        </g>
                      </svg>