<svg width="42" height="37" viewBox="0 0 42 37" fill="none" xmlns="http://www.w3.org/2000/svg">
<g id="solanaLogoMark 1" clip-path="url(#clip0_6854_3502)">
<path id="Vector" d="M41.7838 29.1718L34.8504 36.4961C34.6997 36.6552 34.5173 36.782 34.3146 36.8687C34.112 36.9554 33.8934 37.0001 33.6725 37H0.804916C0.648085 37 0.494673 36.9548 0.36353 36.8702C0.232384 36.7854 0.129219 36.6649 0.0667077 36.5232C0.0041968 36.3815 -0.0149362 36.2249 0.0116594 36.0727C0.0382551 35.9204 0.109421 35.7792 0.216413 35.6662L7.15501 28.342C7.30534 28.1833 7.4871 28.0567 7.68908 27.9701C7.89109 27.8834 8.109 27.8385 8.32935 27.8381H41.1951C41.3519 27.8381 41.5053 27.8832 41.6366 27.9679C41.7675 28.0526 41.8707 28.1733 41.9335 28.3149C41.9958 28.4566 42.015 28.6132 41.9884 28.7654C41.9617 28.9176 41.8906 29.0589 41.7838 29.1718ZM34.8504 14.4229C34.6997 14.2638 34.5173 14.137 34.3146 14.0503C34.112 13.9636 33.8934 13.9189 33.6725 13.9191H0.804916C0.648085 13.9191 0.494673 13.9642 0.36353 14.0489C0.232384 14.1336 0.129219 14.2542 0.0667077 14.3959C0.0041968 14.5376 -0.0149362 14.6941 0.0116594 14.8464C0.0382551 14.9986 0.109421 15.1399 0.216413 15.2528L7.15501 22.5771C7.30534 22.7357 7.4871 22.8623 7.68908 22.949C7.89109 23.0357 8.109 23.0806 8.32935 23.0809H41.1951C41.3519 23.0809 41.5053 23.0358 41.6366 22.9511C41.7675 22.8664 41.8707 22.7458 41.9335 22.6041C41.9958 22.4624 42.015 22.3059 41.9884 22.1536C41.9617 22.0014 41.8906 21.8601 41.7838 21.7472L34.8504 14.4229ZM0.804916 9.16191H33.6725C33.8934 9.162 34.112 9.11735 34.3146 9.03065C34.5173 8.94395 34.6997 8.8171 34.8504 8.658L41.7838 1.33376C41.8906 1.22082 41.9617 1.07955 41.9884 0.927312C42.015 0.775074 41.9958 0.618501 41.9335 0.476829C41.8707 0.335157 41.7675 0.214556 41.6366 0.129846C41.5053 0.0451354 41.3519 5.21675e-06 41.1951 0H8.32935C8.109 0.000369326 7.89109 0.0452825 7.68908 0.131959C7.4871 0.218636 7.30534 0.34523 7.15501 0.503906L0.218202 7.82815C0.111313 7.94096 0.0401785 8.0821 0.0135225 8.23414C-0.0131335 8.38622 0.00584773 8.54267 0.0681381 8.68428C0.130429 8.82589 0.233321 8.94647 0.364196 9.03132C0.495072 9.11617 0.648239 9.16154 0.804916 9.16191Z" fill="url(#paint0_linear_6854_3502)"/>
</g>
<defs>
<linearGradient id="paint0_linear_6854_3502" x1="3.54529" y1="37.8818" x2="37.4304" y2="-0.89831" gradientUnits="userSpaceOnUse">
<stop offset="0.08" stop-color="#9945FF"/>
<stop offset="0.3" stop-color="#8752F3"/>
<stop offset="0.5" stop-color="#5497D5"/>
<stop offset="0.6" stop-color="#43B4CA"/>
<stop offset="0.72" stop-color="#28E0B9"/>
<stop offset="0.97" stop-color="#19FB9B"/>
</linearGradient>
<clipPath id="clip0_6854_3502">
<rect width="42" height="37" fill="white"/>
</clipPath>
</defs>
</svg>
