<svg width="15" height="19" viewBox="0 0 15 19" fill="none" xmlns="http://www.w3.org/2000/svg">
<path id="Vector" d="M15 7.7916C13.5255 7.79551 12.0872 7.28587 10.8882 6.33469V12.9686C10.8878 14.1972 10.5489 15.3965 9.91697 16.4059C9.28498 17.4154 8.38999 18.187 7.35166 18.6175C6.31333 19.048 5.18116 19.1169 4.10653 18.8151C3.0319 18.5132 2.06604 17.8549 1.33809 16.9282C0.610146 16.0015 0.154814 14.8506 0.0329802 13.6294C-0.0888536 12.4082 0.128618 11.1749 0.656317 10.0943C1.18402 9.01378 1.99679 8.13754 2.98596 7.58276C3.97512 7.02799 5.09353 6.82113 6.19164 6.98984V10.3264C5.68915 10.1513 5.14956 10.1565 4.64993 10.3415C4.1503 10.5265 3.71618 10.8817 3.40957 11.3564C3.10296 11.8312 2.93954 12.4011 2.94264 12.9849C2.94574 13.5687 3.11521 14.1365 3.42685 14.6072C3.73848 15.0779 4.17634 15.4274 4.6779 15.6059C5.17946 15.7843 5.71907 15.7825 6.21967 15.6008C6.72027 15.4191 7.15626 15.0667 7.46538 14.594C7.7745 14.1213 7.94093 13.5524 7.94092 12.9686V0H10.8882C10.8862 0.275844 10.907 0.551313 10.9505 0.822923C11.0529 1.42925 11.2659 2.00605 11.5763 2.51804C11.8868 3.03003 12.2882 3.46644 12.756 3.80059C13.4217 4.28837 14.202 4.54835 15 4.54816V7.7916Z" fill="#808080"/>
</svg>
