<svg width="72" height="35" viewBox="0 0 72 35" fill="none" xmlns="http://www.w3.org/2000/svg">
<g id="Group 9">
<path id="Vector 3.1" opacity="0.5" d="M2.22479 31.2136L1 29.8571V34C1 34.5523 1.44772 35 2 35H70C70.5523 35 71 34.5523 71 34V18.0714L69.8901 22.4964C69.8428 22.6852 69.7414 22.856 69.5984 22.988L68.9712 23.5668C68.4035 24.0908 67.4813 23.8005 67.3161 23.0458L65.9694 16.8933C65.8689 16.4343 65.4624 16.1071 64.9925 16.1071H64.7247C64.2482 16.1071 63.838 15.771 63.7442 15.3039L63.1509 12.3469C63.0108 11.6487 62.067 11.522 61.7477 12.1585C61.6207 12.4116 61.3617 12.5714 61.0785 12.5714H58.2764C57.9507 12.5714 57.6453 12.4127 57.4581 12.1461L57.2441 11.8414C56.7717 11.1688 55.7347 11.3216 55.4764 12.1019L54.6711 14.5341C54.3497 15.505 52.9505 15.4244 52.7427 14.423L51.196 6.97202C51.1563 6.78059 51.0613 6.60501 50.9229 6.467L49.1823 4.73215C48.9276 4.47826 48.5562 4.38071 48.2096 4.47667L46.7829 4.87168C46.297 5.00621 45.7869 4.75799 45.593 4.29262L44.7182 2.19343C44.3775 1.37608 43.221 1.37207 42.8747 2.18703L41.5926 5.20447C41.3663 5.73705 40.606 5.7211 40.4022 5.17949C40.1916 4.61976 39.3972 4.62752 39.1976 5.19126L38.4767 7.22694C38.1505 8.14829 36.8322 8.10258 36.5706 7.16084L35.6327 3.78513C35.3553 2.78651 33.9288 2.81753 33.695 3.82727L32.3955 9.43984C32.2905 9.89324 31.8867 10.2143 31.4213 10.2143H31.3457C30.8849 10.2143 30.4838 10.5291 30.3744 10.9767L27.5226 22.6379C27.4987 22.7359 27.46 22.8297 27.408 22.9161L24.5034 27.7413C24.1284 28.3643 23.2349 28.3915 22.8228 27.7924L22.3083 27.0445C22.0237 26.6308 21.4764 26.4924 21.0293 26.7209L19.2167 27.6474C18.917 27.8006 18.7144 28.0944 18.6778 28.429L18.3611 31.3231C18.3055 31.8302 17.8772 32.2143 17.367 32.2143H16.2905C15.9064 32.2143 15.5562 31.9943 15.3895 31.6482L13.6816 28.1016C13.326 27.3632 12.2819 27.3426 11.8975 28.0664L10.0461 31.552C9.69501 32.2131 8.7687 32.2681 8.34167 31.6533L6.61104 29.1617C6.19733 28.5661 5.307 28.5951 4.93298 29.2164L3.82374 31.0591C3.47762 31.6341 2.67456 31.7117 2.22479 31.2136Z" fill="url(#paint0_linear_6345_3905)"/>
<path id="Vector 3.2" d="M1 29.8571L2.22479 31.2136C2.67456 31.7117 3.47762 31.6341 3.82374 31.0591L4.93298 29.2164C5.307 28.5951 6.19733 28.5661 6.61104 29.1617L8.34167 31.6533C8.7687 32.2681 9.69501 32.2131 10.0461 31.552L11.8975 28.0664C12.2819 27.3426 13.326 27.3632 13.6816 28.1016L15.3895 31.6482C15.5562 31.9943 15.9064 32.2143 16.2905 32.2143H17.367C17.8772 32.2143 18.3055 31.8302 18.3611 31.3231L18.6778 28.429C18.7144 28.0944 18.917 27.8006 19.2167 27.6474L21.0293 26.7209C21.4764 26.4924 22.0237 26.6308 22.3083 27.0445L22.8228 27.7924C23.2349 28.3915 24.1284 28.3643 24.5034 27.7413L27.408 22.9161C27.46 22.8297 27.4987 22.7359 27.5226 22.6379L30.3744 10.9767C30.4838 10.5291 30.8849 10.2143 31.3457 10.2143H31.4213C31.8867 10.2143 32.2905 9.89324 32.3955 9.43984L33.695 3.82727C33.9288 2.81753 35.3553 2.78651 35.6327 3.78513L36.5706 7.16084C36.8322 8.10258 38.1505 8.14829 38.4767 7.22694L39.1976 5.19126C39.3972 4.62752 40.1916 4.61976 40.4022 5.17949V5.17949C40.606 5.7211 41.3663 5.73705 41.5926 5.20447L42.8748 2.18703C43.221 1.37207 44.3775 1.37608 44.7182 2.19343L45.593 4.29262C45.7869 4.75799 46.297 5.00621 46.7829 4.87168L48.2096 4.47667C48.5562 4.38071 48.9276 4.47826 49.1823 4.73215L50.9229 6.467C51.0613 6.60501 51.1563 6.78059 51.196 6.97202L52.7427 14.423C52.9505 15.4244 54.3497 15.505 54.6711 14.5341L55.4764 12.1019C55.7347 11.3216 56.7717 11.1688 57.2441 11.8414L57.4581 12.1461C57.6453 12.4127 57.9507 12.5714 58.2764 12.5714H61.0785C61.3617 12.5714 61.6207 12.4116 61.7477 12.1585V12.1585C62.067 11.522 63.0108 11.6487 63.1509 12.3469L63.7442 15.3039C63.838 15.771 64.2482 16.1071 64.7247 16.1071H64.9925C65.4624 16.1071 65.8689 16.4343 65.9694 16.8933L67.3161 23.0458C67.4813 23.8005 68.4035 24.0908 68.9712 23.5668L69.5631 23.0206C69.7279 22.8684 69.8368 22.6653 69.8723 22.4437L70.5833 18" stroke="#1276A7" stroke-linecap="round"/>
</g>
<defs>
<linearGradient id="paint0_linear_6345_3905" x1="36" y1="0" x2="36" y2="35" gradientUnits="userSpaceOnUse">
<stop stop-color="#1276A7" stop-opacity="0.46"/>
<stop offset="1" stop-color="#ECFBF6" stop-opacity="0"/>
</linearGradient>
</defs>
</svg>
