<svg width="49" height="21" viewBox="0 0 49 21" fill="none" xmlns="http://www.w3.org/2000/svg">
<g id="Vector">
<path fill-rule="evenodd" clip-rule="evenodd" d="M21.8874 15.9239V9.87852H25.0058C26.2836 9.87852 27.3621 9.45011 28.2414 8.60519L28.4524 8.39098C30.0584 6.64163 29.9529 3.91645 28.2414 2.29801C27.3856 1.44118 26.2133 0.977071 25.0058 1.00087H20V15.9239H21.8874ZM21.8877 8.04581V2.83347H25.0534C25.7335 2.83347 26.3784 3.09527 26.8591 3.57129C27.8792 4.57091 27.9026 6.23696 26.9177 7.27229C26.437 7.78401 25.7569 8.06961 25.0534 8.04581H21.8877Z" fill="white"/>
<path fill-rule="evenodd" clip-rule="evenodd" d="M37.2565 6.51075C36.4476 5.76103 35.3456 5.38022 33.9506 5.38022C32.1569 5.38022 30.8088 6.04664 29.9178 7.36757L31.5825 8.4267C32.1921 7.52228 33.0245 7.07007 34.0795 7.07007C34.7478 7.07007 35.3925 7.31997 35.8966 7.77219C36.389 8.2006 36.6704 8.81942 36.6704 9.47393V9.91425C35.9435 9.50964 35.0291 9.29543 33.9037 9.29543C32.5907 9.29543 31.5356 9.60484 30.7502 10.2356C29.9647 10.8663 29.5661 11.6993 29.5661 12.7584C29.5427 13.7224 29.953 14.6387 30.6798 15.2575C31.4184 15.9239 32.3562 16.2571 33.4582 16.2571C34.7595 16.2571 35.7911 15.674 36.5766 14.5078H36.6586V15.9239H38.464V9.62864C38.464 8.3077 38.0654 7.26047 37.2565 6.51075ZM32.1341 14.0436C31.7472 13.758 31.5127 13.2939 31.5127 12.7941C31.5127 12.2348 31.7706 11.7706 32.2748 11.4017C32.7907 11.0328 33.4356 10.8424 34.1977 10.8424C35.253 10.8305 36.0737 11.0685 36.66 11.5445C36.66 12.3538 36.3434 13.0559 35.722 13.6509C35.1592 14.2221 34.397 14.5434 33.5997 14.5434C33.0721 14.5553 32.5562 14.3768 32.1341 14.0436Z" fill="white"/>
<path d="M42.5202 20.4104L48.8272 5.71351H46.7757L43.8566 13.0441H43.8215L40.8321 5.71351H38.7805L42.9188 15.2695L40.5742 20.4104H42.5202Z" fill="white"/>
<path d="M16.5445 8.75923C16.5445 8.17612 16.4976 7.593 16.4038 7.02178H8.44385V10.3182H13.0041C12.8166 11.3773 12.207 12.3293 11.316 12.9243V15.0664H14.0358C15.6301 13.5789 16.5445 11.3773 16.5445 8.75923Z" fill="#4285F4"/>
<path d="M8.44397 17.137C10.7183 17.137 12.6407 16.3754 14.0358 15.0664L11.316 12.9243C10.554 13.448 9.58112 13.7454 8.44397 13.7454C6.24003 13.7454 4.37605 12.2341 3.70783 10.211H0.906006V12.4245C2.33623 15.3163 5.25528 17.137 8.44397 17.137Z" fill="#34A853"/>
<path d="M3.70783 10.211C3.35608 9.15191 3.35628 7.99767 3.70803 6.92664V4.72508H0.905755C-0.301918 7.14085 -0.301918 9.99693 0.905755 12.4127L3.70783 10.211Z" fill="#FBBC04"/>
<path d="M8.44392 3.39211C9.6514 3.36831 10.812 3.83243 11.6795 4.67735L14.0945 2.22588C12.5587 0.77404 10.5424 -0.0232828 8.44392 0.000517914C5.25523 0.000517914 2.33598 1.8333 0.905755 4.72508L3.70778 6.93841C4.376 4.90346 6.23997 3.39211 8.44392 3.39211Z" fill="#EA4335"/>
</g>
</svg>
