<svg width="18" height="12" viewBox="0 0 18 12" fill="none" xmlns="http://www.w3.org/2000/svg">
<g id="Group">
<path id="rect19" d="M11.4282 1.67651H6.55713V10.3234H11.4282V1.67651Z" fill="#FF5A00"/>
<path id="XMLID_330_" d="M6.8815 6C6.8815 4.2432 7.71737 2.68398 9 1.67654C8.05604 0.943204 6.86529 0.5 5.56645 0.5C2.48959 0.5 0 2.95987 0 6C0 9.04013 2.48959 11.5 5.56645 11.5C6.86529 11.5 8.05604 11.0568 9 10.3235C7.71557 9.33026 6.8815 7.7568 6.8815 6Z" fill="#EB001B"/>
<path id="path22" d="M18 6C18 9.04013 15.5104 11.5 12.4335 11.5C11.1347 11.5 9.94396 11.0568 9 10.3235C10.2988 9.31424 11.1185 7.7568 11.1185 6C11.1185 4.2432 10.2826 2.68398 9 1.67654C9.94215 0.943204 11.1329 0.5 12.4317 0.5C15.5104 0.5 18 2.97589 18 6Z" fill="#F79E1B"/>
</g>
</svg>
