<svg width="56" height="15" viewBox="0 0 56 15" fill="none" xmlns="http://www.w3.org/2000/svg">
<g id="Logo">
<g id="pal">
<path id="Vector" d="M37.7886 0.000488281H33.4322C33.1348 0.000488281 32.8813 0.218159 32.8348 0.513935L31.0732 11.7413C31.0381 11.9628 31.2088 12.1625 31.4311 12.1625H33.6666C33.8742 12.1625 34.0519 12.0102 34.0844 11.8027L34.5844 8.62025C34.6302 8.32383 34.8844 8.10616 35.1818 8.10616H36.56C39.4299 8.10616 41.0852 6.71051 41.5182 3.94481C41.7138 2.73482 41.5259 1.78411 40.9622 1.11829C40.3438 0.387174 39.2464 0.000488281 37.7886 0.000488281ZM38.2911 4.10102C38.0535 5.67209 36.8594 5.67209 35.704 5.67209H35.0474L35.5092 2.73802C35.5365 2.56068 35.6881 2.43008 35.8671 2.43008H36.1683C36.9543 2.43008 37.6969 2.43008 38.0803 2.88078C38.3089 3.14967 38.3784 3.54916 38.2911 4.10102Z" fill="#179BD7"/>
<path id="Vector_2" d="M50.8081 4.0507H48.7235C48.5445 4.0507 48.3923 4.1813 48.3656 4.35864L48.2732 4.94507L48.1267 4.73252C47.6752 4.07375 46.6689 3.85352 45.6639 3.85352C43.3589 3.85352 41.3909 5.60833 41.0075 8.06993C40.8088 9.29785 41.091 10.472 41.7839 11.2908C42.4208 12.0437 43.329 12.3574 44.4111 12.3574C46.2683 12.3574 47.2981 11.157 47.2981 11.157L47.2052 11.7396C47.1701 11.9624 47.3408 12.1621 47.5644 12.1621H49.4426C49.74 12.1621 49.9935 11.9445 50.04 11.6481L51.1679 4.47196C51.2023 4.25108 51.0316 4.0507 50.8081 4.0507ZM47.9006 8.13139C47.7007 9.32922 46.7536 10.1333 45.5473 10.1333C44.9429 10.1333 44.4576 9.93806 44.1468 9.56802C43.8385 9.20054 43.7226 8.67749 43.8194 8.0949C44.0086 6.90731 44.969 6.07696 46.1568 6.07696C46.7491 6.07696 47.2306 6.27478 47.5478 6.64802C47.8669 7.02511 47.993 7.55136 47.9006 8.13139Z" fill="#179BD7"/>
<path id="Vector_3" d="M53.2669 0.30858L51.4792 11.7414C51.4442 11.9629 51.6148 12.1627 51.8371 12.1627H53.6344C53.9331 12.1627 54.1866 11.945 54.2325 11.6486L55.9954 0.421897C56.0304 0.200385 55.8597 0 55.6375 0H53.6249C53.4472 0.000640208 53.2943 0.131243 53.2669 0.30858Z" fill="#179BD7"/>
</g>
<g id="pay">
<path id="Vector_4" d="M6.71999 0.000488281H2.36427C2.0662 0.000488281 1.81272 0.218159 1.76622 0.513935L0.00457267 11.7413C-0.0304565 11.9628 0.140231 12.1625 0.363781 12.1625H2.44324C2.74131 12.1625 2.99479 11.9449 3.04129 11.6484L3.51641 8.62025C3.56227 8.32383 3.81639 8.10616 4.11382 8.10616H5.49269C8.3619 8.10616 10.0178 6.71051 10.4503 3.94481C10.6452 2.73482 10.4586 1.78411 9.89491 1.11829C9.27585 0.387174 8.17784 0.000488281 6.71999 0.000488281ZM7.2225 4.10102C6.9843 5.67209 5.79012 5.67209 4.63543 5.67209H3.97816L4.43927 2.73802C4.46666 2.56068 4.61951 2.43008 4.79784 2.43008H5.09909C5.88566 2.43008 6.62764 2.43008 7.01105 2.88078C7.23969 3.14967 7.30975 3.54916 7.2225 4.10102Z" fill="#253B80"/>
<path id="Vector_5" d="M19.7404 4.05046H17.6545C17.4768 4.05046 17.3233 4.18106 17.296 4.3584L17.2036 4.94483L17.0578 4.73228C16.6062 4.0735 15.5993 3.85327 14.5942 3.85327C12.2893 3.85327 10.3207 5.60808 9.93728 8.06968C9.73793 9.2976 10.0213 10.4717 10.7143 11.2906C11.3499 12.0435 12.2594 12.3572 13.3415 12.3572C15.1987 12.3572 16.2285 11.1568 16.2285 11.1568L16.1355 11.7394C16.1005 11.9621 16.2712 12.1619 16.4935 12.1619H18.3723C18.671 12.1619 18.9232 11.9442 18.9704 11.6478L20.0977 4.47171C20.1333 4.25084 19.9633 4.05046 19.7404 4.05046ZM16.8329 8.13114C16.6317 9.32897 15.6859 10.1331 14.4796 10.1331C13.8739 10.1331 13.3899 9.93781 13.0791 9.56777C12.7708 9.20029 12.6536 8.67724 12.7517 8.09465C12.9396 6.90707 13.9013 6.07671 15.0891 6.07671C15.6814 6.07671 16.1629 6.27454 16.4801 6.64778C16.7979 7.02486 16.924 7.55111 16.8329 8.13114Z" fill="#253B80"/>
<path id="Vector_6" d="M30.8488 4.05054H28.7527C28.5527 4.05054 28.3649 4.15041 28.2515 4.3175L25.3606 8.59793L24.1352 4.4846C24.0582 4.22723 23.8219 4.05054 23.5544 4.05054H21.4947C21.2444 4.05054 21.0705 4.29638 21.1501 4.53325L23.4589 11.3438L21.2883 14.4238C21.1176 14.6665 21.2896 15 21.5845 15H23.678C23.8767 15 24.0626 14.9027 24.1754 14.7388L31.1468 4.62352C31.3137 4.38152 31.1424 4.05054 30.8488 4.05054Z" fill="#253B80"/>
</g>
</g>
</svg>
