<svg width="56" height="12" viewBox="0 0 56 12" fill="none" xmlns="http://www.w3.org/2000/svg">
<g id="Logo">
<path id="Vector" d="M9.20465 0.699951C9.58274 1.32158 9.75319 1.96187 9.75319 2.77068C9.75319 5.35036 7.54102 8.70156 5.74559 11.0547H1.64469L0 1.26476L3.59078 0.925395L4.46034 7.89158C5.27286 6.57389 6.2755 4.50319 6.2755 3.0914C6.2755 2.31863 6.14253 1.79228 5.93467 1.35888L9.20465 0.699951Z" fill="#008CFF"/>
<path id="Vector_2" d="M13.8586 5.01154C14.5193 5.01154 16.1829 4.71062 16.1829 3.76942C16.1829 3.31748 15.8618 3.09204 15.4835 3.09204C14.8217 3.09204 13.9532 3.88209 13.8586 5.01154ZM13.7828 6.87558C13.7828 8.02482 14.4248 8.4757 15.2758 8.4757C16.2026 8.4757 17.0899 8.25025 18.2432 7.66679L17.8088 10.6032C16.9962 10.9985 15.7298 11.2622 14.5006 11.2622C11.3825 11.2622 10.2666 9.37977 10.2666 7.0265C10.2666 3.97642 12.0818 0.737793 15.8242 0.737793C17.8847 0.737793 19.0369 1.88694 19.0369 3.48706C19.037 6.06666 15.7112 6.85692 13.7828 6.87558Z" fill="#008CFF"/>
<path id="Vector_3" d="M29.3996 2.95988C29.3996 3.33635 29.3424 3.88241 29.2851 4.23928L28.2078 11.0172H24.7113L25.6942 4.804C25.7128 4.63548 25.7701 4.29621 25.7701 4.10797C25.7701 3.656 25.4864 3.54325 25.1454 3.54325C24.6925 3.54325 24.2385 3.75012 23.9361 3.90118L22.8213 11.0173H19.3052L20.9115 0.86954H23.9547L23.9933 1.67951C24.7112 1.20891 25.6566 0.699951 26.9979 0.699951C28.7751 0.699758 29.3996 1.60375 29.3996 2.95988Z" fill="#008CFF"/>
<path id="Vector_4" d="M39.7794 1.84868C40.7808 1.13398 41.7264 0.737793 43.03 0.737793C44.8253 0.737793 45.4498 1.64179 45.4498 2.99792C45.4498 3.37441 45.3926 3.92047 45.3356 4.27734L44.2593 11.0553H40.7619L41.7637 4.71073C41.782 4.54112 41.8209 4.33425 41.8209 4.20302C41.8209 3.69414 41.5371 3.58128 41.1961 3.58128C40.7619 3.58128 40.3277 3.76952 40.0054 3.93921L38.8908 11.0554H35.3944L36.3959 4.71081C36.4142 4.54123 36.452 4.33435 36.452 4.20312C36.452 3.69425 36.168 3.58139 35.8283 3.58139C35.3744 3.58139 34.9214 3.78826 34.6189 3.93932L33.5033 11.0555H29.9883L31.5946 0.907671H34.6006L34.6951 1.75484C35.3944 1.24714 36.3389 0.738179 37.6052 0.738179C38.7018 0.737793 39.4194 1.20849 39.7794 1.84868Z" fill="#008CFF"/>
<path id="Vector_5" d="M52.4078 4.80458C52.4078 3.97616 52.1996 3.41136 51.5764 3.41136C50.1967 3.41136 49.9132 5.8398 49.9132 7.0821C49.9132 8.02455 50.1781 8.60783 50.8013 8.60783C52.1054 8.60783 52.4078 6.04678 52.4078 4.80458ZM46.3599 6.93214C46.3599 3.73197 48.0607 0.737549 51.9736 0.737549C54.9221 0.737549 56 2.47006 56 4.86141C56 8.02445 54.3176 11.3001 50.3101 11.3001C47.3427 11.3001 46.3599 9.36069 46.3599 6.93214Z" fill="#008CFF"/>
</g>
</svg>
