<svg width="56" height="17" viewBox="0 0 56 17" fill="none" xmlns="http://www.w3.org/2000/svg">
<g id="Union">
<path fill-rule="evenodd" clip-rule="evenodd" d="M0 6.01333C0 3.90847 0 2.85604 0.409211 2.05209C0.769163 1.34491 1.34352 0.769958 2.04997 0.409634C2.85309 0 3.90443 0 6.00712 0H10.3759C12.4786 0 13.53 0 14.3331 0.409634C15.0395 0.769958 15.6139 1.34491 15.9739 2.05209C16.3831 2.85604 16.3831 3.90847 16.3831 6.01333V10.3867C16.3831 12.4915 16.3831 13.544 15.9739 14.3479C15.6139 15.0551 15.0395 15.63 14.3331 15.9904C13.53 16.4 12.4786 16.4 10.3759 16.4H6.00712C3.90443 16.4 2.85309 16.4 2.04997 15.9904C1.34352 15.63 0.769163 15.0551 0.409211 14.3479C0 13.544 0 12.4915 0 10.3867V6.01333ZM7.38226 3.70395L4.74503 3.6797L4.74503 5.42624H9.11564L4.57356 11.238V12.716H7.38226V14.4183H9.06749V12.716H11.9324C11.9565 12.6479 11.9649 12.4643 11.8124 12.2961C11.5596 12.0157 11.3586 11.7227 11.174 11.3542C11.1324 11.2731 11.0958 11.1841 11.0664 11.1129C11.0363 11.0398 11.0139 10.9854 11.0017 10.9773C10.711 10.964 9.70834 10.9593 8.80486 10.9551C7.95502 10.9511 7.19283 10.9476 7.19368 10.9376L11.7398 5.09021V3.70395H9.06749V1.98163H7.38226V3.70395Z" fill="#6627CF"/>
<path d="M24.715 3.14454L21.5466 3.11525L21.5465 5.22476H26.7975L21.3405 12.2443V14.0295H24.715V16.0855H26.7397V14.0295H30.1817C30.2106 13.9472 30.2207 13.7255 30.0375 13.5223C29.7338 13.1836 29.4923 12.8297 29.2705 12.3846C29.2206 12.2867 29.1766 12.1793 29.1413 12.0933C29.1051 12.005 29.0782 11.9392 29.0635 11.9294C28.7142 11.9133 27.5095 11.9077 26.424 11.9026C25.4033 11.8978 24.4874 11.8935 24.4884 11.8815L29.9503 4.8189V3.14454H26.7397V1.06429H24.715V3.14454Z" fill="#6627CF"/>
<path d="M39.3361 2.16246C39.2879 2.18181 39.2735 3.25095 39.2735 7.30016V7.61578C39.2734 12.2007 39.2734 12.6429 39.4399 13.0089C39.4576 13.0479 39.4772 13.086 39.499 13.1281L39.5097 13.149C39.7266 13.5699 40.2569 13.9472 40.8498 14.102C41.1776 14.1891 42.1418 14.1988 42.513 14.1214C42.9902 14.0198 43.0818 13.8747 42.8938 13.5022C42.7733 13.2699 42.6142 12.762 42.5756 12.4814C42.5226 12.1476 42.4551 12.0944 42.0502 12.104C41.8574 12.1089 41.6742 12.0944 41.6404 12.075C41.4428 11.9492 41.4428 11.9154 41.4428 7.01473C41.4428 3.86535 41.4283 2.2834 41.3946 2.22051C41.3464 2.13343 41.2837 2.12859 40.3678 2.13343C39.8327 2.13343 39.3651 2.14794 39.3361 2.16246Z" fill="#6627CF"/>
<path d="M43.7567 2.17696C43.694 2.21567 43.6844 2.8349 43.6844 7.26628C43.6844 12.0412 43.6892 12.3314 43.776 12.6652C43.9399 13.3232 44.3111 13.7247 45.0149 14.0198C45.2849 14.1311 45.4054 14.1504 45.9501 14.1649C46.678 14.1843 47.0492 14.1311 47.4204 13.9424C47.7868 13.7634 47.7964 13.6376 47.4831 13.178C47.3577 12.9942 47.1649 12.6797 47.0589 12.4814L46.866 12.1186L46.5141 12.1137C46.0754 12.104 46.0321 12.0847 45.9501 11.8767C45.8874 11.7364 45.8778 11.0155 45.8778 7.01472C45.8778 3.86534 45.8633 2.28339 45.8296 2.2205C45.7814 2.13342 45.7187 2.12859 44.8028 2.12859C44.2677 2.12859 43.7953 2.15277 43.7567 2.17696Z" fill="#6627CF"/>
<path fill-rule="evenodd" clip-rule="evenodd" d="M33.2717 5.20057C33.2476 5.21025 33.0596 5.25379 32.8619 5.29733C31.623 5.58275 30.5287 6.53579 30.0659 7.74523C29.8104 8.41284 29.7188 8.93048 29.714 9.69969C29.7092 10.7785 29.9261 11.5719 30.4226 12.3266C30.9818 13.1732 31.8014 13.7489 32.8619 14.0392C33.2235 14.1359 33.3825 14.1504 34.2117 14.1504C35.0312 14.1504 35.1999 14.1359 35.5422 14.044C36.3906 13.8069 37.1137 13.4151 37.6971 12.8587C38.0682 12.5104 38.0634 12.4137 37.6874 12.1234C37.5331 12.0025 37.2535 11.7412 37.0704 11.538C36.839 11.2913 36.6992 11.1752 36.6269 11.1752C36.5594 11.1752 36.4051 11.272 36.2557 11.4171C35.7399 11.8864 35.0891 12.1089 34.2358 12.1041C33.4549 12.0992 32.886 11.896 32.5245 11.48C32.3413 11.272 32.1099 10.7979 32.0617 10.5318L32.0328 10.3528H35.036C36.6895 10.3528 38.0731 10.3334 38.1068 10.3092C38.2659 10.2077 38.3045 9.50618 38.1888 8.74181C37.914 6.91314 36.8245 5.68435 35.1132 5.27314C34.8095 5.20057 34.5588 5.17638 34.0189 5.18122C33.6332 5.18122 33.3006 5.1909 33.2717 5.20057ZM34.5588 7.06795C34.9107 7.14051 35.3446 7.3824 35.547 7.61461C35.735 7.82747 35.9279 8.20966 35.9761 8.45638L36.0098 8.61119H32.081L32.1147 8.45638C32.2593 7.80328 32.8185 7.25662 33.5127 7.08246C33.8212 7.00506 34.2358 7.00022 34.5588 7.06795Z" fill="#6627CF"/>
<path fill-rule="evenodd" clip-rule="evenodd" d="M50.7948 5.24411C49.0835 5.62629 47.9265 6.83573 47.565 8.62086C47.3481 9.6755 47.4686 10.9043 47.8783 11.7848C48.4375 13.0039 49.4547 13.7924 50.843 14.0779C51.2817 14.1698 51.4553 14.1794 52.1446 14.1601C52.7279 14.1407 53.0413 14.1069 53.3112 14.0343C54.1356 13.8166 54.8587 13.4199 55.4131 12.8878C55.8373 12.4766 55.8373 12.4572 55.3793 12.075C55.1672 11.9009 54.8828 11.6251 54.7478 11.4655C54.4345 11.1026 54.3525 11.0978 54.0006 11.4171C53.4751 11.896 52.8484 12.1089 51.9759 12.104C50.7515 12.0992 50.038 11.5719 49.8066 10.5076L49.7729 10.382H55.8807C56.0879 10.2321 56.0108 8.64505 55.7601 7.90971C55.7119 7.76458 55.5818 7.47432 55.4757 7.27113C54.9117 6.18747 54.0102 5.51502 52.7569 5.24895C52.3567 5.16187 51.1757 5.16187 50.7948 5.24411ZM52.2989 7.06794C52.6267 7.14051 52.9641 7.30983 53.2052 7.52753C53.4076 7.7162 53.7355 8.31125 53.7355 8.49508V8.61119H49.8211L49.8548 8.47573C50.1055 7.44045 51.166 6.82606 52.2989 7.06794Z" fill="#6627CF"/>
</g>
</svg>
